<!-- Generated by readme-aura https://github.com/collectioneur/readme-aura -->
<svg width="278" height="60" viewBox="0 0 278 60" xmlns="http://www.w3.org/2000/svg"><defs><clipPath id="satori_bc-id"><path x="0" y="0" width="278" height="60" d="M12,0 h254 a12,12 0 0 1 12,12 v36 a12,12 0 0 1 -12,12 h-254 a12,12 0 0 1 -12,-12 v-36 a12,12 0 0 1 12,-12"/></clipPath></defs><mask id="satori_ms-id-0" maskUnits="userSpaceOnUse"><rect x="0" y="0" width="278" height="60" fill="#fff"/><path x="0" y="0" width="278" height="60" fill="#000"  stroke-width="0" d="M12,0 h254 a12,12 0 0 1 12,12 v36 a12,12 0 0 1 -12,12 h-254 a12,12 0 0 1 -12,-12 v-36 a12,12 0 0 1 12,-12"/></mask><defs><filter id="satori_s-id-0" x="-20.23381294964029%" y="-93.75%" width="140.46762589928056%" height="287.5%"><feGaussianBlur stdDeviation="7.5" result="b"/><feFlood flood-color="rgba(0, 0, 0, 0.2)" in="SourceGraphic" result="f"/><feComposite in="f" in2="b" operator="in"/></filter></defs><g mask="url(#satori_ms-id-0)" filter="url(#satori_s-id-0)" opacity="1"><path x="0" y="4" width="278" height="60" fill="#fff" stroke="#fff" stroke-width="0" d="M12,4 h254 a12,12 0 0 1 12,12 v36 a12,12 0 0 1 -12,12 h-254 a12,12 0 0 1 -12,-12 v-36 a12,12 0 0 1 12,-12"/></g><clipPath id="satori_cp-id"><path x="0" y="0" width="278" height="60" d="M12,0 h254 a12,12 0 0 1 12,12 v36 a12,12 0 0 1 -12,12 h-254 a12,12 0 0 1 -12,-12 v-36 a12,12 0 0 1 12,-12"/></clipPath><mask id="satori_om-id"><rect x="1" y="1" width="276" height="58" fill="#fff"/><path width="278" height="60" fill="none" stroke="#000" stroke-width="2" d="M3.5150000000000006,3.5150000000000006 A12,12 0 0 1 12,0 h254 a12,12 0 0 1 12,12 v36 a12,12 0 0 1 -12,12 h-254 a12,12 0 0 1 -12,-12 v-36 A12,12 0 0 1 3.5150000000000006,3.5150000000000006"/></mask><path x="0" y="0" width="278" height="60" fill="#0a0b10" d="M12,0 h254 a12,12 0 0 1 12,12 v36 a12,12 0 0 1 -12,12 h-254 a12,12 0 0 1 -12,-12 v-36 a12,12 0 0 1 12,-12"/><path width="278" height="60" clip-path="url(#satori_bc-id)" fill="none" stroke="rgba(88, 101, 242, 0.3)" stroke-width="2" d="M3.5150000000000006,3.5150000000000006 A12,12 0 0 1 12,0 h254 a12,12 0 0 1 12,12 v36 a12,12 0 0 1 -12,12 h-254 a12,12 0 0 1 -12,-12 v-36 A12,12 0 0 1 3.5150000000000006,3.5150000000000006"/><mask id="satori_om-id-0"><rect x="1" y="1" width="276" height="58" fill="#fff" mask="url(#satori_om-id)"/></mask><rect x="1" y="1" width="276" height="58" fill="rgba(88, 101, 242, 0.15)" clip-path="url(#satori_cp-id)" mask="url(#satori_om-id)"/><mask id="satori_om-id-1"><rect x="95" y="19" width="89" height="22" fill="#fff" mask="url(#satori_om-id)"/></mask><mask id="satori_om-id-1-0"><rect x="95" y="19" width="22" height="22" fill="#fff" mask="url(#satori_om-id)"/></mask><path x="95" y="19" width="22" height="22" fill="#5865f2" d="M100,19 h12 a5,5 0 0 1 5,5 v12 a5,5 0 0 1 -5,5 h-12 a5,5 0 0 1 -5,-5 v-12 a5,5 0 0 1 5,-5" clip-path="url(#satori_cp-id)" mask="url(#satori_om-id)"/><g mask="url(#satori_om-id)" clip-path="url(#satori_cp-id)"><path fill="#fff" d="M100.5 34L100.5 34L97.7 34L97.7 26.0L100.6 26.0Q101.8 26.0 102.6 26.5Q103.5 27.0 104.0 27.9Q104.4 28.7 104.4 30.0L104.4 30.0Q104.4 31.2 104.0 32.1Q103.5 33.0 102.6 33.5Q101.8 34 100.5 34ZM99.4 27.4L99.4 32.6L100.5 32.6Q101.2 32.6 101.8 32.3Q102.3 32.0 102.5 31.5Q102.8 30.9 102.8 30.0L102.8 30.0Q102.8 29.1 102.5 28.5Q102.3 28.0 101.8 27.7Q101.2 27.4 100.5 27.4L100.5 27.4L99.4 27.4ZM109.2 34.1L109.2 34.1Q108.1 34.1 107.3 33.6Q106.4 33.1 105.9 32.2Q105.4 31.3 105.4 30.0L105.4 30.0Q105.4 28.7 105.9 27.8Q106.4 26.9 107.3 26.4Q108.1 25.9 109.2 25.9L109.2 25.9Q109.8 25.9 110.4 26.1Q111.0 26.3 111.5 26.6Q111.9 27.0 112.2 27.5Q112.5 28.1 112.6 28.7L112.6 28.7L110.9 28.7Q110.9 28.4 110.7 28.1Q110.6 27.9 110.4 27.7Q110.1 27.5 109.8 27.4Q109.5 27.3 109.2 27.3L109.2 27.3Q108.6 27.3 108.1 27.7Q107.6 28.0 107.4 28.6Q107.1 29.2 107.1 30.0L107.1 30.0Q107.1 30.9 107.4 31.5Q107.6 32.1 108.1 32.4Q108.6 32.7 109.2 32.7L109.2 32.7Q109.5 32.7 109.8 32.6Q110.1 32.5 110.4 32.3Q110.6 32.1 110.7 31.8Q110.9 31.6 111.0 31.3L111.0 31.3L112.6 31.3Q112.5 31.8 112.3 32.3Q112.0 32.8 111.6 33.2Q111.1 33.6 110.5 33.9Q109.9 34.1 109.2 34.1Z "/></g><mask id="satori_om-id-1-1"><rect x="131" y="22" width="53" height="16" fill="#fff" mask="url(#satori_om-id)"/></mask><g mask="url(#satori_om-id)" clip-path="url(#satori_cp-id)"><path fill="#c7d2fe" d="M135.2 35L135.2 35L131.9 35L131.9 25.5L135.2 25.5Q136.6 25.5 137.7 26.1Q138.7 26.7 139.2 27.7Q139.8 28.8 139.8 30.3L139.8 30.3Q139.8 31.7 139.2 32.8Q138.7 33.9 137.7 34.4Q136.6 35 135.2 35ZM133.8 27.2L133.8 33.3L135.1 33.3Q136.0 33.3 136.6 33.0Q137.2 32.7 137.6 32.0Q137.9 31.3 137.9 30.3L137.9 30.3Q137.9 29.2 137.5 28.5Q137.2 27.9 136.6 27.5Q136.0 27.2 135.1 27.2L135.1 27.2L133.8 27.2ZM143.6 35L141.7 35L141.7 27.9L143.6 27.9L143.6 35ZM142.7 27.0L142.7 27.0Q142.2 27.0 141.9 26.7Q141.6 26.4 141.6 26.0L141.6 26.0Q141.6 25.6 141.9 25.3Q142.2 25.0 142.7 25.0L142.7 25.0Q143.1 25.0 143.4 25.3Q143.7 25.6 143.7 26.0L143.7 26.0Q143.7 26.4 143.4 26.7Q143.1 27.0 142.7 27.0ZM148.5 35.1L148.5 35.1Q147.7 35.1 147.0 34.9Q146.4 34.7 145.9 34.2Q145.5 33.7 145.4 33.1L145.4 33.1L147.2 32.8Q147.3 33.2 147.7 33.5Q148.0 33.7 148.6 33.7L148.6 33.7Q149.1 33.7 149.5 33.5Q149.8 33.3 149.8 33.0L149.8 33.0Q149.8 32.7 149.5 32.6Q149.3 32.4 148.9 32.3L148.9 32.3L147.6 32.0Q146.6 31.8 146.1 31.3Q145.6 30.8 145.6 30.0L145.6 30.0Q145.6 29.3 146.0 28.8Q146.3 28.3 147.0 28.1Q147.7 27.8 148.6 27.8L148.6 27.8Q149.4 27.8 150.0 28.0Q150.6 28.3 151.0 28.7Q151.4 29.1 151.5 29.7L151.5 29.7L149.8 30.0Q149.7 29.6 149.4 29.4Q149.1 29.2 148.6 29.2L148.6 29.2Q148.1 29.2 147.8 29.4Q147.5 29.6 147.5 29.9L147.5 29.9Q147.5 30.2 147.7 30.4Q147.9 30.5 148.4 30.6L148.4 30.6L149.7 30.9Q150.7 31.1 151.2 31.6Q151.7 32.0 151.7 32.8L151.7 32.8Q151.7 33.5 151.3 34.0Q150.9 34.6 150.2 34.8Q149.5 35.1 148.5 35.1ZM156.7 35.1L156.7 35.1Q155.6 35.1 154.8 34.7Q154.1 34.2 153.6 33.4Q153.2 32.6 153.2 31.5L153.2 31.5Q153.2 30.4 153.6 29.6Q154.1 28.7 154.8 28.3Q155.6 27.8 156.7 27.8L156.7 27.8Q157.3 27.8 157.8 28.0Q158.4 28.1 158.8 28.4Q159.2 28.8 159.5 29.2Q159.7 29.6 159.8 30.2L159.8 30.2L158.1 30.5Q158.0 30.2 157.9 30.0Q157.8 29.8 157.6 29.6Q157.4 29.5 157.2 29.4Q157.0 29.3 156.7 29.3L156.7 29.3Q156.2 29.3 155.8 29.6Q155.5 29.9 155.3 30.3Q155.1 30.8 155.1 31.5L155.1 31.5Q155.1 32.1 155.3 32.6Q155.5 33.1 155.8 33.4Q156.2 33.6 156.7 33.6L156.7 33.6Q157.0 33.6 157.2 33.6Q157.4 33.5 157.6 33.3Q157.8 33.1 157.9 32.9Q158.0 32.7 158.1 32.4L158.1 32.4L159.8 32.7Q159.7 33.3 159.5 33.7Q159.2 34.2 158.8 34.5Q158.4 34.8 157.8 35.0Q157.3 35.1 156.7 35.1ZM164.8 35.1L164.8 35.1Q163.8 35.1 163.0 34.7Q162.2 34.2 161.8 33.4Q161.4 32.6 161.4 31.5L161.4 31.5Q161.4 30.4 161.8 29.6Q162.2 28.7 163.0 28.3Q163.8 27.8 164.8 27.8L164.8 27.8Q165.9 27.8 166.7 28.3Q167.5 28.7 167.9 29.6Q168.3 30.4 168.3 31.5L168.3 31.5Q168.3 32.6 167.9 33.4Q167.5 34.2 166.7 34.7Q165.9 35.1 164.8 35.1ZM164.8 33.6L164.8 33.6Q165.3 33.6 165.7 33.4Q166.0 33.1 166.2 32.6Q166.4 32.1 166.4 31.5L166.4 31.5Q166.4 30.8 166.2 30.4Q166.0 29.9 165.7 29.6Q165.3 29.3 164.8 29.3L164.8 29.3Q164.3 29.3 164.0 29.6Q163.6 29.9 163.5 30.4Q163.3 30.8 163.3 31.5L163.3 31.5Q163.3 32.1 163.5 32.6Q163.6 33.1 164.0 33.4Q164.3 33.6 164.8 33.6ZM172.0 35L170.1 35L170.1 27.9L172.0 27.9L172.0 29.1L172.0 29.1Q172.2 28.5 172.7 28.1Q173.2 27.8 173.8 27.8L173.8 27.8Q173.9 27.8 174.1 27.8Q174.2 27.8 174.4 27.9L174.4 27.9L174.4 29.6Q174.2 29.5 174.0 29.5Q173.8 29.5 173.5 29.5L173.5 29.5Q173.1 29.5 172.8 29.7Q172.4 29.9 172.2 30.2Q172.0 30.5 172.0 31.0L172.0 31.0L172.0 35ZM178.5 35.1L178.5 35.1Q177.7 35.1 177.0 34.7Q176.4 34.3 176.0 33.5Q175.6 32.6 175.6 31.5L175.6 31.5Q175.6 30.3 176.0 29.4Q176.4 28.6 177.1 28.2Q177.7 27.8 178.5 27.8L178.5 27.8Q179.1 27.8 179.5 28.0Q179.9 28.2 180.2 28.5Q180.4 28.8 180.5 29.1L180.5 29.1L180.6 29.1L180.6 25.5L182.5 25.5L182.5 35L180.6 35L180.6 33.9L180.5 33.9Q180.4 34.1 180.1 34.4Q179.9 34.7 179.5 34.9Q179.1 35.1 178.5 35.1ZM179.1 33.6L179.1 33.6Q179.6 33.6 179.9 33.3Q180.3 33.1 180.4 32.6Q180.6 32.1 180.6 31.5L180.6 31.5Q180.6 30.8 180.4 30.3Q180.3 29.9 179.9 29.6Q179.6 29.3 179.1 29.3L179.1 29.3Q178.6 29.3 178.3 29.6Q177.9 29.9 177.7 30.4Q177.6 30.8 177.6 31.5L177.6 31.5Q177.6 32.1 177.8 32.6Q177.9 33.0 178.3 33.3Q178.6 33.6 179.1 33.6Z "/></g></svg>