<!-- Generated by readme-aura https://github.com/collectioneur/readme-aura -->
<svg width="278" height="60" viewBox="0 0 278 60" xmlns="http://www.w3.org/2000/svg"><defs><clipPath id="satori_bc-id"><path x="0" y="0" width="278" height="60" d="M12,0 h254 a12,12 0 0 1 12,12 v36 a12,12 0 0 1 -12,12 h-254 a12,12 0 0 1 -12,-12 v-36 a12,12 0 0 1 12,-12"/></clipPath></defs><mask id="satori_ms-id-0" maskUnits="userSpaceOnUse"><rect x="0" y="0" width="278" height="60" fill="#fff"/><path x="0" y="0" width="278" height="60" fill="#000"  stroke-width="0" d="M12,0 h254 a12,12 0 0 1 12,12 v36 a12,12 0 0 1 -12,12 h-254 a12,12 0 0 1 -12,-12 v-36 a12,12 0 0 1 12,-12"/></mask><defs><filter id="satori_s-id-0" x="-20.23381294964029%" y="-93.75%" width="140.46762589928056%" height="287.5%"><feGaussianBlur stdDeviation="7.5" result="b"/><feFlood flood-color="rgba(0, 0, 0, 0.2)" in="SourceGraphic" result="f"/><feComposite in="f" in2="b" operator="in"/></filter></defs><g mask="url(#satori_ms-id-0)" filter="url(#satori_s-id-0)" opacity="1"><path x="0" y="4" width="278" height="60" fill="#fff" stroke="#fff" stroke-width="0" d="M12,4 h254 a12,12 0 0 1 12,12 v36 a12,12 0 0 1 -12,12 h-254 a12,12 0 0 1 -12,-12 v-36 a12,12 0 0 1 12,-12"/></g><clipPath id="satori_cp-id"><path x="0" y="0" width="278" height="60" d="M12,0 h254 a12,12 0 0 1 12,12 v36 a12,12 0 0 1 -12,12 h-254 a12,12 0 0 1 -12,-12 v-36 a12,12 0 0 1 12,-12"/></clipPath><mask id="satori_om-id"><rect x="1" y="1" width="276" height="58" fill="#fff"/><path width="278" height="60" fill="none" stroke="#000" stroke-width="2" d="M3.5150000000000006,3.5150000000000006 A12,12 0 0 1 12,0 h254 a12,12 0 0 1 12,12 v36 a12,12 0 0 1 -12,12 h-254 a12,12 0 0 1 -12,-12 v-36 A12,12 0 0 1 3.5150000000000006,3.5150000000000006"/></mask><path x="0" y="0" width="278" height="60" fill="#0a0b10" d="M12,0 h254 a12,12 0 0 1 12,12 v36 a12,12 0 0 1 -12,12 h-254 a12,12 0 0 1 -12,-12 v-36 a12,12 0 0 1 12,-12"/><path width="278" height="60" clip-path="url(#satori_bc-id)" fill="none" stroke="rgba(219, 48, 105, 0.3)" stroke-width="2" d="M3.5150000000000006,3.5150000000000006 A12,12 0 0 1 12,0 h254 a12,12 0 0 1 12,12 v36 a12,12 0 0 1 -12,12 h-254 a12,12 0 0 1 -12,-12 v-36 A12,12 0 0 1 3.5150000000000006,3.5150000000000006"/><mask id="satori_om-id-0"><rect x="1" y="1" width="276" height="58" fill="#fff" mask="url(#satori_om-id)"/></mask><rect x="1" y="1" width="276" height="58" fill="rgba(219, 48, 105, 0.12)" clip-path="url(#satori_cp-id)" mask="url(#satori_om-id)"/><mask id="satori_om-id-1"><rect x="87" y="19" width="105" height="22" fill="#fff" mask="url(#satori_om-id)"/></mask><defs><pattern id="satori_pattern_id-1-0_0" x="0" y="0" width="1" height="1" patternUnits="objectBoundingBox"><linearGradient id="satori_biid-1-0_0" x1="4.0371746350005693e-17" y1="1" x2="1" y2="0" spreadMethod="pad"><stop offset="0%" stop-color="#f09433"/><stop offset="25%" stop-color="#e6683c"/><stop offset="50%" stop-color="#dc2743"/><stop offset="75%" stop-color="#cc2366"/><stop offset="100%" stop-color="#bc1888"/></linearGradient><rect x="0" y="0" width="22" height="22" fill="url(#satori_biid-1-0_0)"/></pattern></defs><mask id="satori_om-id-1-0"><rect x="87" y="19" width="22" height="22" fill="#fff" mask="url(#satori_om-id)"/></mask><path x="87" y="19" width="22" height="22" fill="url(#satori_pattern_id-1-0_0)" d="M92,19 h12 a5,5 0 0 1 5,5 v12 a5,5 0 0 1 -5,5 h-12 a5,5 0 0 1 -5,-5 v-12 a5,5 0 0 1 5,-5" clip-path="url(#satori_cp-id)" mask="url(#satori_om-id)"/><g mask="url(#satori_om-id)" clip-path="url(#satori_cp-id)"><path fill="#fff" d="M92.7 26.0L94.4 26.0L94.4 34L92.7 34L92.7 26.0ZM99.4 34.1L99.4 34.1Q98.2 34.1 97.4 33.6Q96.5 33.1 96.1 32.2Q95.6 31.3 95.6 30.0L95.6 30.0Q95.6 28.7 96.1 27.8Q96.6 26.9 97.4 26.4Q98.3 25.9 99.3 25.9L99.3 25.9Q100.0 25.9 100.6 26.1Q101.2 26.3 101.6 26.6Q102.1 27.0 102.4 27.5Q102.6 28.0 102.7 28.6L102.7 28.6L101.1 28.6Q101.0 28.3 100.8 28.1Q100.7 27.8 100.5 27.7Q100.2 27.5 100.0 27.4Q99.7 27.3 99.3 27.3L99.3 27.3Q98.7 27.3 98.3 27.7Q97.8 28.0 97.5 28.6Q97.3 29.1 97.3 30.0Q97.3 30.8 97.5 31.4Q97.8 32.0 98.3 32.3Q98.7 32.7 99.4 32.7L99.4 32.7Q99.9 32.7 100.4 32.4Q100.8 32.2 101.0 31.8L101.0 31.8Q101.2 31.5 101.2 31.0L101.2 31.0L99.5 31.0L99.5 29.7L102.8 29.7L102.8 30.7Q102.8 31.8 102.4 32.5Q101.9 33.3 101.1 33.7Q100.4 34.1 99.4 34.1Z "/></g><mask id="satori_om-id-1-1"><rect x="123" y="22" width="69" height="16" fill="#fff" mask="url(#satori_om-id)"/></mask><g mask="url(#satori_om-id)" clip-path="url(#satori_cp-id)"><path fill="#fda4af" d="M123.9 25.5L125.8 25.5L125.8 35L123.9 35L123.9 25.5ZM129.9 30.9L129.9 30.9L129.9 35L128.0 35L128.0 27.9L129.8 27.9L129.8 29.4Q130.1 28.7 130.5 28.3L130.5 28.3Q131.1 27.8 132.0 27.8L132.0 27.8Q132.7 27.8 133.3 28.1Q133.8 28.5 134.1 29.1Q134.4 29.7 134.4 30.5L134.4 30.5L134.4 35L132.5 35L132.5 30.8Q132.5 30.2 132.2 29.8Q131.8 29.4 131.2 29.4L131.2 29.4Q130.8 29.4 130.5 29.6Q130.2 29.8 130.0 30.1Q129.9 30.4 129.9 30.9ZM139.4 35.1L139.4 35.1Q138.5 35.1 137.9 34.9Q137.2 34.7 136.8 34.2Q136.4 33.7 136.2 33.1L136.2 33.1L138.0 32.8Q138.1 33.2 138.5 33.5Q138.8 33.7 139.4 33.7L139.4 33.7Q140.0 33.7 140.3 33.5Q140.6 33.3 140.6 33.0L140.6 33.0Q140.6 32.7 140.4 32.6Q140.2 32.4 139.7 32.3L139.7 32.3L138.5 32.0Q137.4 31.8 136.9 31.3Q136.4 30.8 136.4 30.0L136.4 30.0Q136.4 29.3 136.8 28.8Q137.2 28.3 137.8 28.1Q138.5 27.8 139.4 27.8L139.4 27.8Q140.2 27.8 140.9 28.0Q141.5 28.3 141.9 28.7Q142.2 29.1 142.4 29.7L142.4 29.7L140.7 30.0Q140.6 29.6 140.3 29.4Q140.0 29.2 139.4 29.2L139.4 29.2Q139.0 29.2 138.6 29.4Q138.3 29.6 138.3 29.9L138.3 29.9Q138.3 30.2 138.5 30.4Q138.7 30.5 139.2 30.6L139.2 30.6L140.5 30.9Q141.5 31.1 142.0 31.6Q142.5 32.0 142.5 32.8L142.5 32.8Q142.5 33.5 142.1 34.0Q141.7 34.6 141.0 34.8Q140.3 35.1 139.4 35.1ZM146.5 27.9L147.9 27.9L147.9 29.4L146.5 29.4L146.5 32.9Q146.5 33.3 146.7 33.4Q146.8 33.6 147.2 33.6L147.2 33.6Q147.3 33.6 147.5 33.6Q147.7 33.5 147.8 33.5L147.8 33.5L148.1 34.9Q147.7 35.0 147.4 35.1Q147.1 35.1 146.8 35.1L146.8 35.1Q145.8 35.1 145.2 34.6Q144.6 34.1 144.6 33.1L144.6 33.1L144.6 29.4L143.7 29.4L143.7 27.9L144.6 27.9L144.6 26.2L146.5 26.2L146.5 27.9ZM151.6 35.1L151.6 35.1Q150.9 35.1 150.4 34.9Q149.8 34.7 149.5 34.2Q149.2 33.7 149.2 33.0L149.2 33.0Q149.2 32.4 149.4 32.0Q149.7 31.6 150.0 31.4Q150.4 31.1 150.9 31.0Q151.4 30.9 151.9 30.8L151.9 30.8Q152.5 30.8 152.9 30.7Q153.3 30.7 153.4 30.5Q153.6 30.4 153.6 30.2L153.6 30.2L153.6 30.2Q153.6 29.9 153.5 29.7Q153.4 29.4 153.1 29.3Q152.9 29.2 152.5 29.2L152.5 29.2Q152.1 29.2 151.9 29.3Q151.6 29.4 151.4 29.6Q151.2 29.8 151.2 30.0L151.2 30.0L149.4 29.8Q149.6 29.1 150.0 28.7Q150.5 28.3 151.1 28.0Q151.7 27.8 152.5 27.8L152.5 27.8Q153.1 27.8 153.6 28.0Q154.2 28.1 154.6 28.4Q155.0 28.7 155.3 29.1Q155.5 29.6 155.5 30.2L155.5 30.2L155.5 35L153.7 35L153.7 34.0L153.7 34.0Q153.5 34.3 153.2 34.6Q152.9 34.8 152.5 35.0Q152.1 35.1 151.6 35.1ZM152.1 33.8L152.1 33.8Q152.6 33.8 152.9 33.6Q153.2 33.4 153.4 33.1Q153.6 32.8 153.6 32.5L153.6 32.5L153.6 31.7Q153.5 31.8 153.4 31.8Q153.2 31.9 153.0 31.9Q152.8 31.9 152.6 32.0Q152.4 32.0 152.2 32.0L152.2 32.0Q151.9 32.1 151.6 32.2Q151.3 32.3 151.2 32.5Q151.0 32.7 151.0 33.0L151.0 33.0Q151.0 33.2 151.2 33.4Q151.3 33.6 151.6 33.7Q151.8 33.8 152.1 33.8ZM160.8 37.8L160.8 37.8Q159.9 37.8 159.3 37.6Q158.6 37.4 158.2 37.0Q157.8 36.6 157.6 36.1L157.6 36.1L159.2 35.6Q159.3 35.8 159.5 36.0Q159.7 36.2 160.0 36.3Q160.3 36.4 160.8 36.4L160.8 36.4Q161.5 36.4 161.9 36.1Q162.3 35.8 162.3 35.1L162.3 35.1L162.3 33.7L162.2 33.7Q162.1 34.0 161.8 34.3Q161.6 34.6 161.2 34.7Q160.8 34.9 160.2 34.9L160.2 34.9Q159.4 34.9 158.8 34.5Q158.1 34.1 157.7 33.4Q157.3 32.6 157.3 31.4L157.3 31.4Q157.3 30.2 157.7 29.4Q158.1 28.6 158.8 28.2Q159.5 27.8 160.2 27.8L160.2 27.8Q160.8 27.8 161.2 28.0Q161.6 28.2 161.9 28.5Q162.2 28.8 162.3 29.1L162.3 29.1L162.4 29.1L162.4 27.9L164.2 27.9L164.2 34.9Q164.2 35.9 163.8 36.5Q163.4 37.2 162.6 37.5Q161.8 37.8 160.8 37.8ZM160.8 33.5L160.8 33.5Q161.3 33.5 161.7 33.2Q162.0 33.0 162.2 32.5Q162.4 32.1 162.4 31.4L162.4 31.4Q162.4 30.8 162.2 30.3Q162.0 29.9 161.7 29.6Q161.3 29.3 160.8 29.3L160.8 29.3Q160.3 29.3 160.0 29.6Q159.7 29.9 159.5 30.3Q159.3 30.8 159.3 31.4L159.3 31.4Q159.3 32.0 159.5 32.5Q159.7 33.0 160.0 33.2Q160.3 33.5 160.8 33.5ZM168.3 35L166.4 35L166.4 27.9L168.2 27.9L168.2 29.1L168.3 29.1Q168.5 28.5 168.9 28.1Q169.4 27.8 170.0 27.8L170.0 27.8Q170.1 27.8 170.3 27.8Q170.5 27.8 170.6 27.9L170.6 27.9L170.6 29.6Q170.5 29.5 170.2 29.5Q170.0 29.5 169.8 29.5L169.8 29.5Q169.3 29.5 169.0 29.7Q168.6 29.9 168.5 30.2Q168.3 30.5 168.3 31.0L168.3 31.0L168.3 35ZM174.1 35.1L174.1 35.1Q173.5 35.1 172.9 34.9Q172.4 34.7 172.1 34.2Q171.8 33.7 171.8 33.0L171.8 33.0Q171.8 32.4 172.0 32.0Q172.2 31.6 172.6 31.4Q173.0 31.1 173.4 31.0Q173.9 30.9 174.5 30.8L174.5 30.8Q175.1 30.8 175.4 30.7Q175.8 30.7 176.0 30.5Q176.2 30.4 176.2 30.2L176.2 30.2L176.2 30.2Q176.2 29.9 176.0 29.7Q175.9 29.4 175.7 29.3Q175.4 29.2 175.1 29.2L175.1 29.2Q174.7 29.2 174.4 29.3Q174.1 29.4 174.0 29.6Q173.8 29.8 173.7 30.0L173.7 30.0L172.0 29.8Q172.2 29.1 172.6 28.7Q173.0 28.3 173.6 28.0Q174.3 27.8 175.1 27.8L175.1 27.8Q175.6 27.8 176.2 28.0Q176.7 28.1 177.1 28.4Q177.6 28.7 177.8 29.1Q178.1 29.6 178.1 30.2L178.1 30.2L178.1 35L176.3 35L176.3 34.0L176.2 34.0Q176.0 34.3 175.8 34.6Q175.5 34.8 175.1 35.0Q174.7 35.1 174.1 35.1ZM174.7 33.8L174.7 33.8Q175.1 33.8 175.5 33.6Q175.8 33.4 176.0 33.1Q176.2 32.8 176.2 32.5L176.2 32.5L176.2 31.7Q176.1 31.8 175.9 31.8Q175.8 31.9 175.5 31.9Q175.3 31.9 175.1 32.0Q174.9 32.0 174.8 32.0L174.8 32.0Q174.4 32.1 174.2 32.2Q173.9 32.3 173.7 32.5Q173.6 32.7 173.6 33.0L173.6 33.0Q173.6 33.2 173.7 33.4Q173.9 33.6 174.1 33.7Q174.4 33.8 174.7 33.8ZM182.1 35L180.2 35L180.2 27.9L182.0 27.9L182.0 29.3Q182.2 28.9 182.4 28.6L182.4 28.6Q182.7 28.2 183.2 28.0Q183.6 27.8 184.1 27.8L184.1 27.8Q184.8 27.8 185.3 28.3L185.3 28.3Q185.7 28.7 185.9 29.4L185.9 29.4Q186.0 29.0 186.3 28.7L186.3 28.7Q186.6 28.2 187.1 28.0Q187.6 27.8 188.2 27.8L188.2 27.8Q188.8 27.8 189.3 28.1Q189.8 28.4 190.1 28.9Q190.4 29.4 190.4 30.2L190.4 30.2L190.4 35L188.5 35L188.5 30.6Q188.5 30.0 188.2 29.7Q187.9 29.4 187.4 29.4L187.4 29.4Q187.0 29.4 186.8 29.5Q186.5 29.7 186.4 30.0Q186.2 30.3 186.2 30.6L186.2 30.6L186.2 35L184.4 35L184.4 30.5Q184.4 30.0 184.1 29.7Q183.8 29.4 183.3 29.4L183.3 29.4Q183.0 29.4 182.7 29.5Q182.4 29.7 182.3 30.0Q182.1 30.3 182.1 30.7L182.1 30.7L182.1 35Z "/></g></svg>