<!-- Generated by readme-aura https://github.com/collectioneur/readme-aura -->
<svg width="278" height="60" viewBox="0 0 278 60" xmlns="http://www.w3.org/2000/svg"><defs><clipPath id="satori_bc-id"><path x="0" y="0" width="278" height="60" d="M12,0 h254 a12,12 0 0 1 12,12 v36 a12,12 0 0 1 -12,12 h-254 a12,12 0 0 1 -12,-12 v-36 a12,12 0 0 1 12,-12"/></clipPath></defs><mask id="satori_ms-id-0" maskUnits="userSpaceOnUse"><rect x="0" y="0" width="278" height="60" fill="#fff"/><path x="0" y="0" width="278" height="60" fill="#000"  stroke-width="0" d="M12,0 h254 a12,12 0 0 1 12,12 v36 a12,12 0 0 1 -12,12 h-254 a12,12 0 0 1 -12,-12 v-36 a12,12 0 0 1 12,-12"/></mask><defs><filter id="satori_s-id-0" x="-20.23381294964029%" y="-93.75%" width="140.46762589928056%" height="287.5%"><feGaussianBlur stdDeviation="7.5" result="b"/><feFlood flood-color="rgba(0, 0, 0, 0.2)" in="SourceGraphic" result="f"/><feComposite in="f" in2="b" operator="in"/></filter></defs><g mask="url(#satori_ms-id-0)" filter="url(#satori_s-id-0)" opacity="1"><path x="0" y="4" width="278" height="60" fill="#fff" stroke="#fff" stroke-width="0" d="M12,4 h254 a12,12 0 0 1 12,12 v36 a12,12 0 0 1 -12,12 h-254 a12,12 0 0 1 -12,-12 v-36 a12,12 0 0 1 12,-12"/></g><clipPath id="satori_cp-id"><path x="0" y="0" width="278" height="60" d="M12,0 h254 a12,12 0 0 1 12,12 v36 a12,12 0 0 1 -12,12 h-254 a12,12 0 0 1 -12,-12 v-36 a12,12 0 0 1 12,-12"/></clipPath><mask id="satori_om-id"><rect x="1" y="1" width="276" height="58" fill="#fff"/><path width="278" height="60" fill="none" stroke="#000" stroke-width="2" d="M3.5150000000000006,3.5150000000000006 A12,12 0 0 1 12,0 h254 a12,12 0 0 1 12,12 v36 a12,12 0 0 1 -12,12 h-254 a12,12 0 0 1 -12,-12 v-36 A12,12 0 0 1 3.5150000000000006,3.5150000000000006"/></mask><path x="0" y="0" width="278" height="60" fill="#0a0b10" d="M12,0 h254 a12,12 0 0 1 12,12 v36 a12,12 0 0 1 -12,12 h-254 a12,12 0 0 1 -12,-12 v-36 a12,12 0 0 1 12,-12"/><path width="278" height="60" clip-path="url(#satori_bc-id)" fill="none" stroke="rgba(10, 102, 194, 0.3)" stroke-width="2" d="M3.5150000000000006,3.5150000000000006 A12,12 0 0 1 12,0 h254 a12,12 0 0 1 12,12 v36 a12,12 0 0 1 -12,12 h-254 a12,12 0 0 1 -12,-12 v-36 A12,12 0 0 1 3.5150000000000006,3.5150000000000006"/><mask id="satori_om-id-0"><rect x="1" y="1" width="276" height="58" fill="#fff" mask="url(#satori_om-id)"/></mask><rect x="1" y="1" width="276" height="58" fill="rgba(10, 102, 194, 0.12)" clip-path="url(#satori_cp-id)" mask="url(#satori_om-id)"/><mask id="satori_om-id-1"><rect x="97" y="22" width="85" height="16" fill="#fff" mask="url(#satori_om-id)"/></mask><clipPath id="satori_cp-id-1-0" clip-path="url(#satori_cp-id)"><rect x="97" y="22" width="16" height="16"/></clipPath><mask id="satori_om-id-1-0"><rect x="97" y="22" width="16" height="16" fill="#fff" mask="url(#satori_om-id)"/></mask><svg x="97" y="22" width="16" height="16" preserveAspectRatio="none" clip-path="url(#satori_cp-id-1-0)" mask="url(#satori_om-id-1-0)"><path d="M19 0h-14c-2.761 0-5 2.239-5 5v14c0 2.761 2.239 5 5 5h14c2.762 0 5-2.239 5-5v-14c0-2.761-2.238-5-5-5zm-11 19h-3v-11h3v11zm-1.5-12.268c-.966 0-1.75-.79-1.75-1.764s.784-1.764 1.75-1.764 1.75.79 1.75 1.764-.783 1.764-1.75 1.764zm13.5 12.268h-3v-5.604c0-3.368-4-3.113-4 0v5.604h-3v-11h3v1.765c1.396-2.586 7-2.777 7 2.476v6.759z"></path></svg><mask id="satori_om-id-1-0-0"><rect x="97" y="22" width="0" height="16" fill="#fff" mask="url(#satori_om-id)"/></mask><mask id="satori_om-id-1-1"><rect x="123" y="22" width="59" height="16" fill="#fff" mask="url(#satori_om-id)"/></mask><g mask="url(#satori_om-id)" clip-path="url(#satori_cp-id)"><path fill="#7dd3fc" d="M129.9 35L123.9 35L123.9 25.5L125.8 25.5L125.8 33.4L129.9 33.4L129.9 35ZM133.6 35L131.7 35L131.7 27.9L133.6 27.9L133.6 35ZM132.6 27.0L132.6 27.0Q132.2 27.0 131.9 26.7Q131.6 26.4 131.6 26.0L131.6 26.0Q131.6 25.6 131.9 25.3Q132.2 25.0 132.6 25.0L132.6 25.0Q133.0 25.0 133.4 25.3Q133.7 25.6 133.7 26.0L133.7 26.0Q133.7 26.4 133.4 26.7Q133.0 27.0 132.6 27.0ZM137.6 30.9L137.6 30.9L137.6 35L135.7 35L135.7 27.9L137.5 27.9L137.5 29.4Q137.8 28.7 138.3 28.3L138.3 28.3Q138.8 27.8 139.7 27.8L139.7 27.8Q140.5 27.8 141.0 28.1Q141.6 28.5 141.9 29.1Q142.2 29.7 142.2 30.5L142.2 30.5L142.2 35L140.3 35L140.3 30.8Q140.3 30.2 139.9 29.8Q139.6 29.4 139.0 29.4L139.0 29.4Q138.6 29.4 138.3 29.6Q137.9 29.8 137.8 30.1Q137.6 30.4 137.6 30.9ZM146.2 35L144.3 35L144.3 25.5L146.2 25.5L146.2 30.6L146.3 30.6L148.6 27.9L150.8 27.9L148.2 31.0L151.0 35L148.7 35L146.7 32.1L146.2 32.7L146.2 35ZM155.5 35.1L155.5 35.1Q154.4 35.1 153.7 34.7Q152.9 34.3 152.4 33.4Q152.0 32.6 152.0 31.5L152.0 31.5Q152.0 30.4 152.4 29.6Q152.9 28.7 153.6 28.3Q154.4 27.8 155.4 27.8L155.4 27.8Q156.1 27.8 156.7 28.0Q157.3 28.3 157.8 28.7Q158.2 29.2 158.5 29.8Q158.8 30.5 158.8 31.4L158.8 31.4L158.8 31.9L153.9 31.9Q153.9 32.5 154.1 32.9L154.1 32.9Q154.3 33.3 154.7 33.5Q155.1 33.7 155.6 33.7L155.6 33.7Q155.9 33.7 156.2 33.6Q156.4 33.5 156.6 33.3Q156.8 33.1 156.9 32.9L156.9 32.9L158.7 33.2Q158.5 33.8 158.1 34.2Q157.6 34.7 157.0 34.9Q156.4 35.1 155.5 35.1ZM153.9 30.8L153.9 30.8L156.9 30.8Q156.9 30.4 156.8 30.1L156.8 30.1Q156.6 29.7 156.3 29.5Q155.9 29.2 155.4 29.2L155.4 29.2Q155.0 29.2 154.6 29.5Q154.3 29.7 154.1 30.1L154.1 30.1Q154.0 30.4 153.9 30.8ZM163.2 35.1L163.2 35.1Q162.3 35.1 161.7 34.7Q161.0 34.3 160.6 33.5Q160.3 32.6 160.3 31.5L160.3 31.5Q160.3 30.3 160.7 29.4Q161.1 28.6 161.7 28.2Q162.4 27.8 163.1 27.8L163.1 27.8Q163.8 27.8 164.2 28.0Q164.6 28.2 164.8 28.5Q165.0 28.8 165.2 29.1L165.2 29.1L165.2 29.1L165.2 25.5L167.1 25.5L167.1 35L165.3 35L165.3 33.9L165.2 33.9Q165.0 34.1 164.8 34.4Q164.5 34.7 164.1 34.9Q163.7 35.1 163.2 35.1ZM163.7 33.6L163.7 33.6Q164.2 33.6 164.6 33.3Q164.9 33.1 165.1 32.6Q165.3 32.1 165.3 31.5L165.3 31.5Q165.3 30.8 165.1 30.3Q164.9 29.9 164.6 29.6Q164.2 29.3 163.7 29.3L163.7 29.3Q163.2 29.3 162.9 29.6Q162.6 29.9 162.4 30.4Q162.2 30.8 162.2 31.5L162.2 31.5Q162.2 32.1 162.4 32.6Q162.6 33.0 162.9 33.3Q163.2 33.6 163.7 33.6ZM169.3 25.5L171.2 25.5L171.2 35L169.3 35L169.3 25.5ZM175.3 30.9L175.3 30.9L175.3 35L173.4 35L173.4 27.9L175.2 27.9L175.2 29.4Q175.5 28.7 176.0 28.3L176.0 28.3Q176.5 27.8 177.4 27.8L177.4 27.8Q178.2 27.8 178.7 28.1Q179.3 28.5 179.6 29.1Q179.9 29.7 179.9 30.5L179.9 30.5L179.9 35L178.0 35L178.0 30.8Q178.0 30.2 177.6 29.8Q177.3 29.4 176.7 29.4L176.7 29.4Q176.3 29.4 176.0 29.6Q175.7 29.8 175.5 30.1Q175.3 30.4 175.3 30.9Z "/></g></svg>