<!-- Generated by readme-aura https://github.com/collectioneur/readme-aura -->
<svg width="860" height="260" viewBox="0 0 860 260" xmlns="http://www.w3.org/2000/svg">
<defs>
  <clipPath id="satori_bc-id"><path d="M20,0 h820 a20,20 0 0 1 20,20 v220 a20,20 0 0 1 -20,20 h-820 a20,20 0 0 1 -20,-20 v-220 a20,20 0 0 1 20,-20"/></clipPath>
  <clipPath id="satori_cp-id"><path d="M20,0 h820 a20,20 0 0 1 20,20 v220 a20,20 0 0 1 -20,20 h-820 a20,20 0 0 1 -20,-20 v-220 a20,20 0 0 1 20,-20"/></clipPath>
  <clipPath id="left-card-clip" clip-path="url(#satori_cp-id)"><path d="M39,25 h367 a14,14 0 0 1 14,14 v182 a14,14 0 0 1 -14,14 h-367 a14,14 0 0 1 -14,-14 v-182 a14,14 0 0 1 14,-14"/></clipPath>
  <clipPath id="right-card-clip" clip-path="url(#satori_cp-id)"><path d="M454,25 h367 a14,14 0 0 1 14,14 v182 a14,14 0 0 1 -14,14 h-367 a14,14 0 0 1 -14,-14 v-182 a14,14 0 0 1 14,-14"/></clipPath>
</defs>

<!-- Background -->
<path fill="#0a0b10" d="M20,0 h820 a20,20 0 0 1 20,20 v220 a20,20 0 0 1 -20,20 h-820 a20,20 0 0 1 -20,-20 v-220 a20,20 0 0 1 20,-20"/>
<path clip-path="url(#satori_bc-id)" fill="none" stroke="rgba(255,255,255,0.05)" stroke-width="2" d="M5.858,5.858 A20,20 0 0 1 20,0 h820 a20,20 0 0 1 20,20 v220 a20,20 0 0 1 -20,20 h-820 a20,20 0 0 1 -20,-20 v-220 A20,20 0 0 1 5.858,5.858"/>

<!-- Amber glow -->
<circle cx="700" cy="50" r="180" fill="url(#aurora-amber-grad)"/>
<defs><radialGradient id="aurora-amber-grad" cx="50%" cy="50%" r="50%"><stop offset="0%" stop-color="rgba(245,158,11,0.4)"/><stop offset="70%" stop-color="rgba(0,0,0,0)"/></radialGradient></defs>

<!-- ============ LEFT CARD: Skills & Tools ============ -->
<path fill="rgba(255,255,255,0.03)" d="M39,25 h367 a14,14 0 0 1 14,14 v182 a14,14 0 0 1 -14,14 h-367 a14,14 0 0 1 -14,-14 v-182 a14,14 0 0 1 14,-14" clip-path="url(#satori_cp-id)"/>
<path clip-path="url(#left-card-clip)" fill="none" stroke="rgba(255,255,255,0.07)" stroke-width="2" d="M29.101,29.101 A14,14 0 0 1 39,25 h367 a14,14 0 0 1 14,14 v182 a14,14 0 0 1 -14,14 h-367 a14,14 0 0 1 -14,-14 v-182 A14,14 0 0 1 29.101,29.101"/>

<!-- Title icon box -->
<path fill="rgba(251,146,60,0.2)" d="M52,46 h10 a6,6 0 0 1 6,6 v10 a6,6 0 0 1 -6,6 h-10 a6,6 0 0 1 -6,-6 v-10 a6,6 0 0 1 6,-6" clip-path="url(#satori_cp-id)"/>
<path clip-path="url(#satori_cp-id)" fill="none" stroke="#fb923c" stroke-width="2" d="M47.757,47.757 A6,6 0 0 1 52,46 h10 a6,6 0 0 1 6,6 v10 a6,6 0 0 1 -6,6 h-10 a6,6 0 0 1 -6,-6 v-10 A6,6 0 0 1 47.757,47.757"/>
<!-- Gear icon -->
<g clip-path="url(#satori_cp-id)" transform="translate(51,48) scale(0.35)" fill="#fb923c">
  <path d="M12,15.5A3.5,3.5 0 0,1 8.5,12A3.5,3.5 0 0,1 12,8.5A3.5,3.5 0 0,1 15.5,12A3.5,3.5 0 0,1 12,15.5M19.43,12.97C19.47,12.65 19.5,12.33 19.5,12C19.5,11.67 19.47,11.34 19.43,11L21.54,9.37C21.73,9.22 21.78,8.95 21.66,8.73L19.66,5.27C19.54,5.05 19.27,4.97 19.05,5.05L16.56,6.05C16.04,5.65 15.48,5.32 14.87,5.07L14.5,2.42C14.46,2.18 14.25,2 14,2H10C9.75,2 9.54,2.18 9.5,2.42L9.13,5.07C8.52,5.32 7.96,5.66 7.44,6.05L4.95,5.05C4.73,4.96 4.46,5.05 4.34,5.27L2.34,8.73C2.21,8.95 2.27,9.22 2.46,9.37L4.57,11C4.53,11.34 4.5,11.67 4.5,12C4.5,12.33 4.53,12.65 4.57,13L2.46,14.63C2.27,14.78 2.21,15.05 2.34,15.27L4.34,18.73C4.46,18.95 4.73,19.03 4.95,18.95L7.44,17.95C7.96,18.35 8.52,18.68 9.13,18.93L9.5,21.58C9.54,21.82 9.75,22 10,22H14C14.25,22 14.46,21.82 14.5,21.58L14.87,18.93C15.48,18.68 16.04,18.34 16.56,17.95L19.05,18.95C19.27,19.04 19.54,18.95 19.66,18.73L21.66,15.27C21.78,15.05 21.73,14.78 21.54,14.63L19.43,12.97Z"/>
</g>

<!-- Title text -->
<text x="80" y="62" font-family="ui-sans-serif,system-ui,sans-serif" font-size="13" font-weight="600" fill="#ffffff" clip-path="url(#satori_cp-id)">Skills &amp; Tools</text>

<!-- ===== ROW 1 BADGES ===== -->

<!-- HTML5 badge -->
<path fill="rgba(244,63,94,0.12)" d="M54,80 h53 a8,8 0 0 1 8,8 v13 a8,8 0 0 1 -8,8 h-53 a8,8 0 0 1 -8,-8 v-13 a8,8 0 0 1 8,-8" clip-path="url(#satori_cp-id)"/>
<path clip-path="url(#satori_cp-id)" fill="none" stroke="rgba(244,63,94,0.4)" stroke-width="1.5" d="M48.343,82.343 A8,8 0 0 1 54,80 h53 a8,8 0 0 1 8,8 v13 a8,8 0 0 1 -8,8 h-53 a8,8 0 0 1 -8,-8 v-13 A8,8 0 0 1 48.343,82.343"/>
<!-- HTML5 icon (simplified) -->
<g clip-path="url(#satori_cp-id)"
   transform="translate(50,85) scale(0.62)"
   fill="#ff7b72">

  <path d="M1.5 0L3.2 19.5L12 22L20.8 19.5L22.5 0H1.5ZM18.4 6H7.5L7.7 8.4H18.2L17.6 15.2L12 16.8L6.4 15.2L6 10.8H8.4L8.6 13L12 14L15.4 13L15.7 9.8H5.5L5 4H18.8L18.4 6Z"/>

</g>
<text x="70" y="98" font-family="ui-sans-serif,system-ui,sans-serif" font-size="11" font-weight="600" fill="#ff7b72" clip-path="url(#satori_cp-id)">HTML5</text>

<!-- CSS3 badge -->
<path fill="rgba(56,189,248,0.12)" d="M131,80 h43 a8,8 0 0 1 8,8 v13 a8,8 0 0 1 -8,8 h-43 a8,8 0 0 1 -8,-8 v-13 a8,8 0 0 1 8,-8" clip-path="url(#satori_cp-id)"/>
<path clip-path="url(#satori_cp-id)" fill="none" stroke="rgba(56,189,248,0.4)" stroke-width="1.5" d="M125.343,82.343 A8,8 0 0 1 131,80 h43 a8,8 0 0 1 8,8 v13 a8,8 0 0 1 -8,8 h-43 a8,8 0 0 1 -8,-8 v-13 A8,8 0 0 1 125.343,82.343"/>
<!-- CSS3 icon -->
<g clip-path="url(#satori_cp-id)"
   transform="translate(127,85) scale(0.62)">

  <!-- Main blue shield -->
  <path fill="#1572B6"
        d="M1.5 0L3.2 19.5L12 22L20.8 19.5L22.5 0H1.5Z"/>

  <!-- Light blue inner -->
  <path fill="#33A9DC"
        d="M12 20.2L19.1 18.2L20.5 1.8H12V20.2Z"/>

  <!-- White CSS shape -->
  <path fill="#ffffff"
        d="M12 5H7.5L7.8 7.5H12V10H5.5L6.1 16L12 17.6V15L8.8 14.1L8.6 12H12V9.5H15L14.7 14.1L12 15V17.6L17.9 16L18.7 5H12Z"/>

</g>
<text x="147" y="98" font-family="ui-sans-serif,system-ui,sans-serif" font-size="11" font-weight="600" fill="#7dd3fc" clip-path="url(#satori_cp-id)">CSS3</text>

<!-- JavaScript badge -->
<path fill="rgba(234,179,8,0.12)" d="M198,80 h74 a8,8 0 0 1 8,8 v13 a8,8 0 0 1 -8,8 h-74 a8,8 0 0 1 -8,-8 v-13 a8,8 0 0 1 8,-8" clip-path="url(#satori_cp-id)"/>
<path clip-path="url(#satori_cp-id)" fill="none" stroke="rgba(234,179,8,0.4)" stroke-width="1.5" d="M192.343,82.343 A8,8 0 0 1 198,80 h74 a8,8 0 0 1 8,8 v13 a8,8 0 0 1 -8,8 h-74 a8,8 0 0 1 -8,-8 v-13 A8,8 0 0 1 192.343,82.343"/>
<!-- JS icon (yellow square with JS) -->
<rect x="195" y="83" width="11" height="11" rx="1.5" fill="#f7df1e" clip-path="url(#satori_cp-id)"/>
<text x="197" y="92" font-family="ui-sans-serif,system-ui,sans-serif" font-size="7.3" font-weight="900" fill="#000" clip-path="url(#satori_cp-id)">JS</text>
<text x="210" y="98" font-family="ui-sans-serif,system-ui,sans-serif" font-size="11" font-weight="600" fill="#fef08a" clip-path="url(#satori_cp-id)">JavaScript</text>

<!-- Git badge -->
<path fill="rgba(249,115,22,0.12)" d="M296,80 h27 a8,8 0 0 1 8,8 v13 a8,8 0 0 1 -8,8 h-27 a8,8 0 0 1 -8,-8 v-13 a8,8 0 0 1 8,-8" clip-path="url(#satori_cp-id)"/>
<path clip-path="url(#satori_cp-id)" fill="none" stroke="rgba(249,115,22,0.4)" stroke-width="1.5" d="M290.343,82.343 A8,8 0 0 1 296,80 h27 a8,8 0 0 1 8,8 v13 a8,8 0 0 1 -8,8 h-27 a8,8 0 0 1 -8,-8 v-13 A8,8 0 0 1 290.343,82.343"/>
<!-- Git icon (branch-like) -->
<g clip-path="url(#satori_cp-id)"
   transform="translate(292,85) scale(0.49)">

  <path fill="#F05033"
        d="M22.5 10.5L13.5 1.5C12.7 0.7 11.3 0.7 10.5 1.5L1.5 10.5C0.7 11.3 0.7 12.7 1.5 13.5L10.5 22.5C11.3 23.3 12.7 23.3 13.5 22.5L22.5 13.5C23.3 12.7 23.3 11.3 22.5 10.5Z"/>

  <path fill="#fff"
        d="M16.7 11.3C16.1 10.7 15.2 10.5 14.4 10.8L12.2 8.6V6C12.4 5.9 12.6 5.8 12.8 5.6C13.4 5 13.4 4 12.8 3.4C12.2 2.8 11.2 2.8 10.6 3.4C10 4 10 5 10.6 5.6C10.8 5.8 11 5.9 11.2 6V8.7C11 8.8 10.8 8.9 10.6 9.1C10 9.7 10 10.7 10.6 11.3C11.2 11.9 12.2 11.9 12.8 11.3C13 11.1 13.1 10.9 13.2 10.7L15.3 12.8C15.2 13 15.1 13.2 15.1 13.5C15.1 14.4 15.8 15.1 16.7 15.1C17.6 15.1 18.3 14.4 18.3 13.5C18.3 12.6 17.6 11.9 16.7 11.9Z"/>
</g>
<text x="306" y="98" font-family="ui-sans-serif,system-ui,sans-serif" font-size="11" font-weight="600" fill="#fdba74" clip-path="url(#satori_cp-id)">Git</text>

<!-- ===== ROW 2 BADGES ===== -->

<!-- GitHub badge -->
<path fill="rgba(255,255,255,0.06)" d="M54,117 h51 a8,8 0 0 1 8,8 v13 a8,8 0 0 1 -8,8 h-51 a8,8 0 0 1 -8,-8 v-13 a8,8 0 0 1 8,-8" clip-path="url(#satori_cp-id)"/>
<path clip-path="url(#satori_cp-id)" fill="none" stroke="rgba(255,255,255,0.2)" stroke-width="1.5" d="M48.343,119.343 A8,8 0 0 1 54,117 h51 a8,8 0 0 1 8,8 v13 a8,8 0 0 1 -8,8 h-51 a8,8 0 0 1 -8,-8 v-13 A8,8 0 0 1 48.343,119.343"/>
<!-- GitHub icon (octocat simplified) -->
<g clip-path="url(#satori_cp-id)" transform="translate(56,119) scale(0.5)" fill="#e2e8f0">
  <path d="M12 0C5.374 0 0 5.373 0 12c0 5.302 3.438 9.8 8.207 11.387.599.111.793-.261.793-.577v-2.234c-3.338.726-4.033-1.416-4.033-1.416-.546-1.387-1.333-1.756-1.333-1.756-1.089-.745.083-.729.083-.729 1.205.084 1.839 1.237 1.839 1.237 1.07 1.834 2.807 1.304 3.492.997.107-.775.418-1.305.762-1.604-2.665-.305-5.467-1.334-5.467-5.931 0-1.311.469-2.381 1.236-3.221-.124-.303-.535-1.524.117-3.176 0 0 1.008-.322 3.301 1.23A11.509 11.509 0 0 1 12 5.803c1.02.005 2.047.138 3.006.404 2.291-1.552 3.297-1.23 3.297-1.23.653 1.653.242 2.874.118 3.176.77.84 1.235 1.911 1.235 3.221 0 4.609-2.807 5.624-5.479 5.921.43.372.823 1.102.823 2.222v3.293c0 .319.192.694.801.576C20.566 21.797 24 17.3 24 12c0-6.627-5.373-12-12-12z"/>
</g>
<text x="70" y="135" font-family="ui-sans-serif,system-ui,sans-serif" font-size="11" font-weight="600" fill="#e2e8f0" clip-path="url(#satori_cp-id)">GitHub</text>

<!-- VS Code badge -->
<path fill="rgba(99,102,241,0.12)" d="M129,117 h61 a8,8 0 0 1 8,8 v13 a8,8 0 0 1 -8,8 h-61 a8,8 0 0 1 -8,-8 v-13 a8,8 0 0 1 8,-8" clip-path="url(#satori_cp-id)"/>
<path clip-path="url(#satori_cp-id)" fill="none" stroke="rgba(99,102,241,0.4)" stroke-width="1.5" d="M123.343,119.343 A8,8 0 0 1 129,117 h61 a8,8 0 0 1 8,8 v13 a8,8 0 0 1 -8,8 h-61 a8,8 0 0 1 -8,-8 v-13 A8,8 0 0 1 123.343,119.343"/>
<!-- VS Code icon -->
<g clip-path="url(#satori_cp-id)" transform="translate(131,119) scale(0.5)" fill="#a5b4fc">
  <path d="M23.15 2.587L18.21.21a1.494 1.494 0 0 0-1.705.29l-9.46 8.63-4.12-3.128a.999.999 0 0 0-1.276.057L.327 7.261A1 1 0 0 0 .326 8.74L3.899 12 .326 15.26a1 1 0 0 0 .001 1.479L1.65 17.94a.999.999 0 0 0 1.276.057l4.12-3.128 9.46 8.63a1.492 1.492 0 0 0 1.704.29l4.942-2.377A1.5 1.5 0 0 0 24 19.996V4.003a1.5 1.5 0 0 0-.85-1.416zm-5.65 14.71-6.584-5.298 6.584-5.298v10.596z"/>
</g>
<text x="145" y="135" font-family="ui-sans-serif,system-ui,sans-serif" font-size="11" font-weight="600" fill="#a5b4fc" clip-path="url(#satori_cp-id)">VS Code</text>

<!-- Java badge (new) -->
<path fill="rgba(239,68,68,0.12)" d="M214,117 h39 a8,8 0 0 1 8,8 v13 a8,8 0 0 1 -8,8 h-39 a8,8 0 0 1 -8,-8 v-13 a8,8 0 0 1 8,-8" clip-path="url(#satori_cp-id)"/>
<path clip-path="url(#satori_cp-id)" fill="none" stroke="rgba(239,68,68,0.4)" stroke-width="1.5" d="M208.343,119.343 A8,8 0 0 1 214,117 h39 a8,8 0 0 1 8,8 v13 a8,8 0 0 1 -8,8 h-39 a8,8 0 0 1 -8,-8 v-13 A8,8 0 0 1 208.343,119.343"/>
<!-- Java icon (coffee cup simplified) -->
<g clip-path="url(#satori_cp-id)"
 transform="translate(209,120) scale(0.67)">

  <!-- Steam -->
  <path d="M12 2C13 3 11 4 12 5C13 6 15 6.5 14 8"
        stroke="#f87171"
        stroke-width="1.4"
        stroke-linecap="round"
        fill="none"/>

  <path d="M9 3C10 4 8 5 9 6"
        stroke="#f87171"
        stroke-width="1.2"
        stroke-linecap="round"
        fill="none"/>

  <!-- Cup -->
  <path fill="#fca5a5"
        d="M6 10H15V11C15 13 13.5 15 11 15H10C7.5 15 6 13 6 11V10Z"/>

  <!-- Handle -->
  <path d="M15 11H16C17 11 17 13 16 13H15"
        stroke="#fca5a5"
        stroke-width="1.3"
        fill="none"
        stroke-linecap="round"/>

  <!-- Plate -->
  <ellipse cx="11"
           cy="17"
           rx="6"
           ry="1.2"
           fill="#fca5a5"
           opacity="0.7"/>

</g>
<text x="225" y="135" font-family="ui-sans-serif,system-ui,sans-serif" font-size="11" font-weight="600" fill="#fca5a5" clip-path="url(#satori_cp-id)">Java</text>

<!-- SQL badge (new) -->
<path fill="rgba(56,189,248,0.12)"
d="M274,117 h38 a8,8 0 0 1 8,8 v13 a8,8 0 0 1 -8,8 h-38 a8,8 0 0 1 -8,-8 v-13 a8,8 0 0 1 8,-8"
clip-path="url(#satori_cp-id)"/>
<path clip-path="url(#satori_cp-id)" fill="none" stroke="rgba(56,189,248,0.4)" stroke-width="1.5" d="M268.343,119.343 A8,8 0 0 1 274,117 h38 a8,8 0 0 1 8,8 v13 a8,8 0 0 1 -8,8 h-38 a8,8 0 0 1 -8,-8 v-13 A8,8 0 0 1 268.343,119.343"/>
<!-- SQL / database icon -->
<g clip-path="url(#satori_cp-id)" transform="translate(271,122) scale(0.52)" fill="#7dd3fc">
  <path d="M12 3C7.58 3 4 4.79 4 7s3.58 4 8 4 8-1.79 8-4-3.58-4-8-4zM4 9v3c0 2.21 3.58 4 8 4s8-1.79 8-4V9c0 2.21-3.58 4-8 4s-8-1.79-8-4zm0 5v3c0 2.21 3.58 4 8 4s8-1.79 8-4v-3c0 2.21-3.58 4-8 4s-8-1.79-8-4z"/>
</g>
<text x="285" y="135" font-family="ui-sans-serif,system-ui,sans-serif" font-size="11" font-weight="600" fill="#7dd3fc" clip-path="url(#satori_cp-id)">SQL</text>

<!-- ============ RIGHT CARD: Currently Learning ============ -->
<path fill="rgba(255,255,255,0.03)" d="M454,25 h367 a14,14 0 0 1 14,14 v182 a14,14 0 0 1 -14,14 h-367 a14,14 0 0 1 -14,-14 v-182 a14,14 0 0 1 14,-14" clip-path="url(#satori_cp-id)"/>
<path clip-path="url(#right-card-clip)" fill="none" stroke="rgba(255,255,255,0.07)" stroke-width="2" d="M444.101,29.101 A14,14 0 0 1 454,25 h367 a14,14 0 0 1 14,14 v182 a14,14 0 0 1 -14,14 h-367 a14,14 0 0 1 -14,-14 v-182 A14,14 0 0 1 444.101,29.101"/>

<!-- Currently Learning icon box -->
<path fill="rgba(74,222,128,0.2)" d="M467,46 h10 a6,6 0 0 1 6,6 v10 a6,6 0 0 1 -6,6 h-10 a6,6 0 0 1 -6,-6 v-10 a6,6 0 0 1 6,-6" clip-path="url(#satori_cp-id)"/>
<path clip-path="url(#satori_cp-id)" fill="none" stroke="#4ade80" stroke-width="2" d="M462.757,47.757 A6,6 0 0 1 467,46 h10 a6,6 0 0 1 6,6 v10 a6,6 0 0 1 -6,6 h-10 a6,6 0 0 1 -6,-6 v-10 A6,6 0 0 1 462.757,47.757"/>
<!-- Book/learning icon -->
<g clip-path="url(#satori_cp-id)" transform="translate(463,47) scale(0.48)" fill="#4ade80">
  <path d="M18 2H6c-1.1 0-2 .9-2 2v16c0 1.1.9 2 2 2h12c1.1 0 2-.9 2-2V4c0-1.1-.9-2-2-2zm-1 9H7V9h10v2zm0-4H7V5h10v2z"/>
</g>

<!-- Currently Learning title -->
<text x="495" y="62" font-family="ui-sans-serif,system-ui,sans-serif" font-size="13" font-weight="600" fill="#ffffff" clip-path="url(#satori_cp-id)">Currently Learning</text>

<!-- Bullet items -->
<circle cx="464" cy="108" r="3" fill="#818cf8" clip-path="url(#satori_cp-id)"/>
<text x="477" y="113" font-family="ui-sans-serif,system-ui,sans-serif" font-size="11" fill="#94a3b8" clip-path="url(#satori_cp-id)">AI Tools &amp; Automation workflows</text>

<circle cx="464" cy="134" r="3" fill="#818cf8" clip-path="url(#satori_cp-id)"/>
<text x="477" y="139" font-family="ui-sans-serif,system-ui,sans-serif" font-size="11" fill="#94a3b8" clip-path="url(#satori_cp-id)">Use of AI in modern software development</text>

<circle cx="464" cy="160" r="3" fill="#818cf8" clip-path="url(#satori_cp-id)"/>
<text x="477" y="165" font-family="ui-sans-serif,system-ui,sans-serif" font-size="11" fill="#94a3b8" clip-path="url(#satori_cp-id)">Advanced frontend frameworks &amp; layout models</text>

<circle cx="464" cy="186" r="3" fill="#818cf8" clip-path="url(#satori_cp-id)"/>
<text x="477" y="191" font-family="ui-sans-serif,system-ui,sans-serif" font-size="11" fill="#94a3b8" clip-path="url(#satori_cp-id)">Creative web UI design &amp; interactive mockups</text>

</svg>
