<!-- Generated by readme-aura https://github.com/collectioneur/readme-aura -->
<svg width="278" height="60" viewBox="0 0 278 60" xmlns="http://www.w3.org/2000/svg"><defs><clipPath id="satori_bc-id"><path x="0" y="0" width="278" height="60" d="M12,0 h254 a12,12 0 0 1 12,12 v36 a12,12 0 0 1 -12,12 h-254 a12,12 0 0 1 -12,-12 v-36 a12,12 0 0 1 12,-12"/></clipPath></defs><mask id="satori_ms-id-0" maskUnits="userSpaceOnUse"><rect x="0" y="0" width="278" height="60" fill="#fff"/><path x="0" y="0" width="278" height="60" fill="#000"  stroke-width="0" d="M12,0 h254 a12,12 0 0 1 12,12 v36 a12,12 0 0 1 -12,12 h-254 a12,12 0 0 1 -12,-12 v-36 a12,12 0 0 1 12,-12"/></mask><defs><filter id="satori_s-id-0" x="-20.23381294964029%" y="-93.75%" width="140.46762589928056%" height="287.5%"><feGaussianBlur stdDeviation="7.5" result="b"/><feFlood flood-color="rgba(0, 0, 0, 0.2)" in="SourceGraphic" result="f"/><feComposite in="f" in2="b" operator="in"/></filter></defs><g mask="url(#satori_ms-id-0)" filter="url(#satori_s-id-0)" opacity="1"><path x="0" y="4" width="278" height="60" fill="#fff" stroke="#fff" stroke-width="0" d="M12,4 h254 a12,12 0 0 1 12,12 v36 a12,12 0 0 1 -12,12 h-254 a12,12 0 0 1 -12,-12 v-36 a12,12 0 0 1 12,-12"/></g><clipPath id="satori_cp-id"><path x="0" y="0" width="278" height="60" d="M12,0 h254 a12,12 0 0 1 12,12 v36 a12,12 0 0 1 -12,12 h-254 a12,12 0 0 1 -12,-12 v-36 a12,12 0 0 1 12,-12"/></clipPath><mask id="satori_om-id"><rect x="1" y="1" width="276" height="58" fill="#fff"/><path width="278" height="60" fill="none" stroke="#000" stroke-width="2" d="M3.5150000000000006,3.5150000000000006 A12,12 0 0 1 12,0 h254 a12,12 0 0 1 12,12 v36 a12,12 0 0 1 -12,12 h-254 a12,12 0 0 1 -12,-12 v-36 A12,12 0 0 1 3.5150000000000006,3.5150000000000006"/></mask><path x="0" y="0" width="278" height="60" fill="#0a0b10" d="M12,0 h254 a12,12 0 0 1 12,12 v36 a12,12 0 0 1 -12,12 h-254 a12,12 0 0 1 -12,-12 v-36 a12,12 0 0 1 12,-12"/><path width="278" height="60" clip-path="url(#satori_bc-id)" fill="none" stroke="rgba(10, 102, 194, 0.3)" stroke-width="2" d="M3.5150000000000006,3.5150000000000006 A12,12 0 0 1 12,0 h254 a12,12 0 0 1 12,12 v36 a12,12 0 0 1 -12,12 h-254 a12,12 0 0 1 -12,-12 v-36 A12,12 0 0 1 3.5150000000000006,3.5150000000000006"/><mask id="satori_om-id-0"><rect x="1" y="1" width="276" height="58" fill="#fff" mask="url(#satori_om-id)"/></mask><rect x="1" y="1" width="276" height="58" fill="rgba(10, 102, 194, 0.12)" clip-path="url(#satori_cp-id)" mask="url(#satori_om-id)"/><mask id="satori_om-id-1"><rect x="92" y="19" width="95" height="22" fill="#fff" mask="url(#satori_om-id)"/></mask><mask id="satori_om-id-1-0"><rect x="92" y="19" width="22" height="22" fill="#fff" mask="url(#satori_om-id)"/></mask><path x="92" y="19" width="22" height="22" fill="#0a66c2" d="M97,19 h12 a5,5 0 0 1 5,5 v12 a5,5 0 0 1 -5,5 h-12 a5,5 0 0 1 -5,-5 v-12 a5,5 0 0 1 5,-5" clip-path="url(#satori_cp-id)" mask="url(#satori_om-id)"/><g mask="url(#satori_om-id)" clip-path="url(#satori_cp-id)"><path fill="#fff" d="M99.5 34L97.8 34L97.8 27.4L99.5 27.4L99.5 34ZM98.6 26.6L98.6 26.6Q98.2 26.6 97.9 26.3Q97.7 26.1 97.7 25.7L97.7 25.7Q97.7 25.3 97.9 25.1Q98.2 24.8 98.6 24.8L98.6 24.8Q99.0 24.8 99.3 25.0Q99.6 25.3 99.6 25.7L99.6 25.7Q99.6 26.1 99.3 26.3Q99.0 26.6 98.6 26.6ZM102.8 30.2L102.8 30.2L102.8 34L101.0 34L101.0 27.4L102.7 27.4L102.7 28.8Q102.9 28.2 103.4 27.8L103.4 27.8Q103.9 27.4 104.7 27.4L104.7 27.4Q105.4 27.4 105.9 27.7Q106.4 28.0 106.7 28.5Q107.0 29.1 107.0 29.8L107.0 29.8L107.0 34L105.2 34L105.2 30.1Q105.2 29.5 104.9 29.2Q104.6 28.8 104.0 28.8L104.0 28.8Q103.7 28.8 103.4 29.0Q103.1 29.2 102.9 29.5Q102.8 29.8 102.8 30.2Z "/></g><mask id="satori_om-id-1-1"><rect x="128" y="22" width="59" height="16" fill="#fff" mask="url(#satori_om-id)"/></mask><g mask="url(#satori_om-id)" clip-path="url(#satori_cp-id)"><path fill="#7dd3fc" d="M134.9 35L128.9 35L128.9 25.5L130.8 25.5L130.8 33.4L134.9 33.4L134.9 35ZM138.6 35L136.7 35L136.7 27.9L138.6 27.9L138.6 35ZM137.6 27.0L137.6 27.0Q137.2 27.0 136.9 26.7Q136.6 26.4 136.6 26.0L136.6 26.0Q136.6 25.6 136.9 25.3Q137.2 25.0 137.6 25.0L137.6 25.0Q138.0 25.0 138.4 25.3Q138.7 25.6 138.7 26.0L138.7 26.0Q138.7 26.4 138.4 26.7Q138.0 27.0 137.6 27.0ZM142.6 30.9L142.6 30.9L142.6 35L140.7 35L140.7 27.9L142.5 27.9L142.5 29.4Q142.8 28.7 143.3 28.3L143.3 28.3Q143.8 27.8 144.7 27.8L144.7 27.8Q145.5 27.8 146.0 28.1Q146.6 28.5 146.9 29.1Q147.2 29.7 147.2 30.5L147.2 30.5L147.2 35L145.3 35L145.3 30.8Q145.3 30.2 144.9 29.8Q144.6 29.4 144.0 29.4L144.0 29.4Q143.6 29.4 143.3 29.6Q142.9 29.8 142.8 30.1Q142.6 30.4 142.6 30.9ZM151.2 35L149.3 35L149.3 25.5L151.2 25.5L151.2 30.6L151.3 30.6L153.6 27.9L155.8 27.9L153.2 31.0L156.0 35L153.7 35L151.7 32.1L151.2 32.7L151.2 35ZM160.5 35.1L160.5 35.1Q159.4 35.1 158.7 34.7Q157.9 34.3 157.4 33.4Q157.0 32.6 157.0 31.5L157.0 31.5Q157.0 30.4 157.4 29.6Q157.9 28.7 158.6 28.3Q159.4 27.8 160.4 27.8L160.4 27.8Q161.1 27.8 161.7 28.0Q162.3 28.3 162.8 28.7Q163.2 29.2 163.5 29.8Q163.8 30.5 163.8 31.4L163.8 31.4L163.8 31.9L158.9 31.9Q158.9 32.5 159.1 32.9L159.1 32.9Q159.3 33.3 159.7 33.5Q160.1 33.7 160.6 33.7L160.6 33.7Q160.9 33.7 161.2 33.6Q161.4 33.5 161.6 33.3Q161.8 33.1 161.9 32.9L161.9 32.9L163.7 33.2Q163.5 33.8 163.1 34.2Q162.6 34.7 162.0 34.9Q161.4 35.1 160.5 35.1ZM158.9 30.8L158.9 30.8L161.9 30.8Q161.9 30.4 161.8 30.1L161.8 30.1Q161.6 29.7 161.3 29.5Q160.9 29.2 160.4 29.2L160.4 29.2Q160.0 29.2 159.6 29.5Q159.3 29.7 159.1 30.1L159.1 30.1Q159.0 30.4 158.9 30.8ZM168.2 35.1L168.2 35.1Q167.3 35.1 166.7 34.7Q166.0 34.3 165.6 33.5Q165.3 32.6 165.3 31.5L165.3 31.5Q165.3 30.3 165.7 29.4Q166.1 28.6 166.7 28.2Q167.4 27.8 168.1 27.8L168.1 27.8Q168.8 27.8 169.2 28.0Q169.6 28.2 169.8 28.5Q170.0 28.8 170.2 29.1L170.2 29.1L170.2 29.1L170.2 25.5L172.1 25.5L172.1 35L170.3 35L170.3 33.9L170.2 33.9Q170.0 34.1 169.8 34.4Q169.5 34.7 169.1 34.9Q168.7 35.1 168.2 35.1ZM168.7 33.6L168.7 33.6Q169.2 33.6 169.6 33.3Q169.9 33.1 170.1 32.6Q170.3 32.1 170.3 31.5L170.3 31.5Q170.3 30.8 170.1 30.3Q169.9 29.9 169.6 29.6Q169.2 29.3 168.7 29.3L168.7 29.3Q168.2 29.3 167.9 29.6Q167.6 29.9 167.4 30.4Q167.2 30.8 167.2 31.5L167.2 31.5Q167.2 32.1 167.4 32.6Q167.6 33.0 167.9 33.3Q168.2 33.6 168.7 33.6ZM174.3 25.5L176.2 25.5L176.2 35L174.3 35L174.3 25.5ZM180.3 30.9L180.3 30.9L180.3 35L178.4 35L178.4 27.9L180.2 27.9L180.2 29.4Q180.5 28.7 181.0 28.3L181.0 28.3Q181.5 27.8 182.4 27.8L182.4 27.8Q183.2 27.8 183.7 28.1Q184.3 28.5 184.6 29.1Q184.9 29.7 184.9 30.5L184.9 30.5L184.9 35L183.0 35L183.0 30.8Q183.0 30.2 182.6 29.8Q182.3 29.4 181.7 29.4L181.7 29.4Q181.3 29.4 181.0 29.6Q180.7 29.8 180.5 30.1Q180.3 30.4 180.3 30.9Z "/></g></svg>