<!-- Generated by readme-aura https://github.com/collectioneur/readme-aura -->
<svg width="278" height="60" viewBox="0 0 278 60" xmlns="http://www.w3.org/2000/svg"><defs><clipPath id="satori_bc-id"><path x="0" y="0" width="278" height="60" d="M12,0 h254 a12,12 0 0 1 12,12 v36 a12,12 0 0 1 -12,12 h-254 a12,12 0 0 1 -12,-12 v-36 a12,12 0 0 1 12,-12"/></clipPath></defs><mask id="satori_ms-id-0" maskUnits="userSpaceOnUse"><rect x="0" y="0" width="278" height="60" fill="#fff"/><path x="0" y="0" width="278" height="60" fill="#000"  stroke-width="0" d="M12,0 h254 a12,12 0 0 1 12,12 v36 a12,12 0 0 1 -12,12 h-254 a12,12 0 0 1 -12,-12 v-36 a12,12 0 0 1 12,-12"/></mask><defs><filter id="satori_s-id-0" x="-20.23381294964029%" y="-93.75%" width="140.46762589928056%" height="287.5%"><feGaussianBlur stdDeviation="7.5" result="b"/><feFlood flood-color="rgba(0, 0, 0, 0.2)" in="SourceGraphic" result="f"/><feComposite in="f" in2="b" operator="in"/></filter></defs><g mask="url(#satori_ms-id-0)" filter="url(#satori_s-id-0)" opacity="1"><path x="0" y="4" width="278" height="60" fill="#fff" stroke="#fff" stroke-width="0" d="M12,4 h254 a12,12 0 0 1 12,12 v36 a12,12 0 0 1 -12,12 h-254 a12,12 0 0 1 -12,-12 v-36 a12,12 0 0 1 12,-12"/></g><clipPath id="satori_cp-id"><path x="0" y="0" width="278" height="60" d="M12,0 h254 a12,12 0 0 1 12,12 v36 a12,12 0 0 1 -12,12 h-254 a12,12 0 0 1 -12,-12 v-36 a12,12 0 0 1 12,-12"/></clipPath><mask id="satori_om-id"><rect x="1" y="1" width="276" height="58" fill="#fff"/><path width="278" height="60" fill="none" stroke="#000" stroke-width="2" d="M3.5150000000000006,3.5150000000000006 A12,12 0 0 1 12,0 h254 a12,12 0 0 1 12,12 v36 a12,12 0 0 1 -12,12 h-254 a12,12 0 0 1 -12,-12 v-36 A12,12 0 0 1 3.5150000000000006,3.5150000000000006"/></mask><path x="0" y="0" width="278" height="60" fill="#0a0b10" d="M12,0 h254 a12,12 0 0 1 12,12 v36 a12,12 0 0 1 -12,12 h-254 a12,12 0 0 1 -12,-12 v-36 a12,12 0 0 1 12,-12"/><path width="278" height="60" clip-path="url(#satori_bc-id)" fill="none" stroke="rgba(88, 101, 242, 0.3)" stroke-width="2" d="M3.5150000000000006,3.5150000000000006 A12,12 0 0 1 12,0 h254 a12,12 0 0 1 12,12 v36 a12,12 0 0 1 -12,12 h-254 a12,12 0 0 1 -12,-12 v-36 A12,12 0 0 1 3.5150000000000006,3.5150000000000006"/><mask id="satori_om-id-0"><rect x="1" y="1" width="276" height="58" fill="#fff" mask="url(#satori_om-id)"/></mask><rect x="1" y="1" width="276" height="58" fill="rgba(88, 101, 242, 0.15)" clip-path="url(#satori_cp-id)" mask="url(#satori_om-id)"/><mask id="satori_om-id-1"><rect x="100" y="22" width="79" height="16" fill="#fff" mask="url(#satori_om-id)"/></mask><clipPath id="satori_cp-id-1-0" clip-path="url(#satori_cp-id)"><rect x="100" y="22" width="16" height="16"/></clipPath><mask id="satori_om-id-1-0"><rect x="100" y="22" width="16" height="16" fill="#fff" mask="url(#satori_om-id)"/></mask><svg x="100" y="22" width="16" height="16" preserveAspectRatio="none" clip-path="url(#satori_cp-id-1-0)" mask="url(#satori_om-id-1-0)"><path d="M20.317 4.37a19.791 19.791 0 0 0-4.885-1.515.074.074 0 0 0-.079.037c-.21.375-.444.864-.608 1.25a18.27 18.27 0 0 0-5.487 0 12.64 12.64 0 0 0-.617-1.25.077.077 0 0 0-.079-.037A19.736 19.736 0 0 0 3.677 4.37a.07.07 0 0 0-.032.027C.533 9.046-.32 13.58.099 18.057a.082.082 0 0 0 .031.057 19.9 19.9 0 0 0 5.993 3.03.078.078 0 0 0 .084-.028c.462-.63.874-1.295 1.226-1.994.021-.041.001-.09-.041-.106a13.094 13.094 0 0 1-1.873-.894.077.077 0 0 1-.008-.128c.126-.093.252-.19.372-.287a.075.075 0 0 1 .077-.011c3.92 1.793 8.18 1.793 12.061 0a.073.073 0 0 1 .078.009c.12.099.246.195.373.289a.077.077 0 0 1-.006.127 12.299 12.299 0 0 1-1.873.894.077.077 0 0 0-.041.107c.36.698.772 1.362 1.225 1.993a.076.076 0 0 0 .084.028 19.839 19.839 0 0 0 6.002-3.03.077.077 0 0 0 .032-.054c.5-5.177-.838-9.674-3.549-13.66a.061.061 0 0 0-.031-.03zM8.02 15.33c-1.183 0-2.157-1.085-2.157-2.419 0-1.333.956-2.419 2.156-2.419 1.21 0 2.176 1.096 2.157 2.42 0 1.333-.956 2.418-2.156 2.418zm7.975 0c-1.183 0-2.157-1.085-2.157-2.419 0-1.333.955-2.419 2.156-2.419 1.21 0 2.176 1.096 2.157 2.42 0 1.333-.946 2.418-2.156 2.418z"></path></svg><mask id="satori_om-id-1-0-0"><rect x="100" y="22" width="0" height="16" fill="#fff" mask="url(#satori_om-id)"/></mask><mask id="satori_om-id-1-1"><rect x="126" y="22" width="53" height="16" fill="#fff" mask="url(#satori_om-id)"/></mask><g mask="url(#satori_om-id)" clip-path="url(#satori_cp-id)"><path fill="#c7d2fe" d="M130.2 35L130.2 35L126.9 35L126.9 25.5L130.2 25.5Q131.6 25.5 132.7 26.1Q133.7 26.7 134.2 27.7Q134.8 28.8 134.8 30.3L134.8 30.3Q134.8 31.7 134.2 32.8Q133.7 33.9 132.7 34.4Q131.6 35 130.2 35ZM128.8 27.2L128.8 33.3L130.1 33.3Q131.0 33.3 131.6 33.0Q132.2 32.7 132.6 32.0Q132.9 31.3 132.9 30.3L132.9 30.3Q132.9 29.2 132.5 28.5Q132.2 27.9 131.6 27.5Q131.0 27.2 130.1 27.2L130.1 27.2L128.8 27.2ZM138.6 35L136.7 35L136.7 27.9L138.6 27.9L138.6 35ZM137.7 27.0L137.7 27.0Q137.2 27.0 136.9 26.7Q136.6 26.4 136.6 26.0L136.6 26.0Q136.6 25.6 136.9 25.3Q137.2 25.0 137.7 25.0L137.7 25.0Q138.1 25.0 138.4 25.3Q138.7 25.6 138.7 26.0L138.7 26.0Q138.7 26.4 138.4 26.7Q138.1 27.0 137.7 27.0ZM143.5 35.1L143.5 35.1Q142.7 35.1 142.0 34.9Q141.4 34.7 140.9 34.2Q140.5 33.7 140.4 33.1L140.4 33.1L142.2 32.8Q142.3 33.2 142.7 33.5Q143.0 33.7 143.6 33.7L143.6 33.7Q144.1 33.7 144.5 33.5Q144.8 33.3 144.8 33.0L144.8 33.0Q144.8 32.7 144.5 32.6Q144.3 32.4 143.9 32.3L143.9 32.3L142.6 32.0Q141.6 31.8 141.1 31.3Q140.6 30.8 140.6 30.0L140.6 30.0Q140.6 29.3 141.0 28.8Q141.3 28.3 142.0 28.1Q142.7 27.8 143.6 27.8L143.6 27.8Q144.4 27.8 145.0 28.0Q145.6 28.3 146.0 28.7Q146.4 29.1 146.5 29.7L146.5 29.7L144.8 30.0Q144.7 29.6 144.4 29.4Q144.1 29.2 143.6 29.2L143.6 29.2Q143.1 29.2 142.8 29.4Q142.5 29.6 142.5 29.9L142.5 29.9Q142.5 30.2 142.7 30.4Q142.9 30.5 143.4 30.6L143.4 30.6L144.7 30.9Q145.7 31.1 146.2 31.6Q146.7 32.0 146.7 32.8L146.7 32.8Q146.7 33.5 146.3 34.0Q145.9 34.6 145.2 34.8Q144.5 35.1 143.5 35.1ZM151.7 35.1L151.7 35.1Q150.6 35.1 149.8 34.7Q149.1 34.2 148.6 33.4Q148.2 32.6 148.2 31.5L148.2 31.5Q148.2 30.4 148.6 29.6Q149.1 28.7 149.8 28.3Q150.6 27.8 151.7 27.8L151.7 27.8Q152.3 27.8 152.8 28.0Q153.4 28.1 153.8 28.4Q154.2 28.8 154.5 29.2Q154.7 29.6 154.8 30.2L154.8 30.2L153.1 30.5Q153.0 30.2 152.9 30.0Q152.8 29.8 152.6 29.6Q152.4 29.5 152.2 29.4Q152.0 29.3 151.7 29.3L151.7 29.3Q151.2 29.3 150.8 29.6Q150.5 29.9 150.3 30.3Q150.1 30.8 150.1 31.5L150.1 31.5Q150.1 32.1 150.3 32.6Q150.5 33.1 150.8 33.4Q151.2 33.6 151.7 33.6L151.7 33.6Q152.0 33.6 152.2 33.6Q152.4 33.5 152.6 33.3Q152.8 33.1 152.9 32.9Q153.0 32.7 153.1 32.4L153.1 32.4L154.8 32.7Q154.7 33.3 154.5 33.7Q154.2 34.2 153.8 34.5Q153.4 34.8 152.8 35.0Q152.3 35.1 151.7 35.1ZM159.8 35.1L159.8 35.1Q158.8 35.1 158.0 34.7Q157.2 34.2 156.8 33.4Q156.4 32.6 156.4 31.5L156.4 31.5Q156.4 30.4 156.8 29.6Q157.2 28.7 158.0 28.3Q158.8 27.8 159.8 27.8L159.8 27.8Q160.9 27.8 161.7 28.3Q162.5 28.7 162.9 29.6Q163.3 30.4 163.3 31.5L163.3 31.5Q163.3 32.6 162.9 33.4Q162.5 34.2 161.7 34.7Q160.9 35.1 159.8 35.1ZM159.8 33.6L159.8 33.6Q160.3 33.6 160.7 33.4Q161.0 33.1 161.2 32.6Q161.4 32.1 161.4 31.5L161.4 31.5Q161.4 30.8 161.2 30.4Q161.0 29.9 160.7 29.6Q160.3 29.3 159.8 29.3L159.8 29.3Q159.3 29.3 159.0 29.6Q158.6 29.9 158.5 30.4Q158.3 30.8 158.3 31.5L158.3 31.5Q158.3 32.1 158.5 32.6Q158.6 33.1 159.0 33.4Q159.3 33.6 159.8 33.6ZM167.0 35L165.1 35L165.1 27.9L167.0 27.9L167.0 29.1L167.0 29.1Q167.2 28.5 167.7 28.1Q168.2 27.8 168.8 27.8L168.8 27.8Q168.9 27.8 169.1 27.8Q169.2 27.8 169.4 27.9L169.4 27.9L169.4 29.6Q169.2 29.5 169.0 29.5Q168.8 29.5 168.5 29.5L168.5 29.5Q168.1 29.5 167.8 29.7Q167.4 29.9 167.2 30.2Q167.0 30.5 167.0 31.0L167.0 31.0L167.0 35ZM173.5 35.1L173.5 35.1Q172.7 35.1 172.0 34.7Q171.4 34.3 171.0 33.5Q170.6 32.6 170.6 31.5L170.6 31.5Q170.6 30.3 171.0 29.4Q171.4 28.6 172.1 28.2Q172.7 27.8 173.5 27.8L173.5 27.8Q174.1 27.8 174.5 28.0Q174.9 28.2 175.2 28.5Q175.4 28.8 175.5 29.1L175.5 29.1L175.6 29.1L175.6 25.5L177.5 25.5L177.5 35L175.6 35L175.6 33.9L175.5 33.9Q175.4 34.1 175.1 34.4Q174.9 34.7 174.5 34.9Q174.1 35.1 173.5 35.1ZM174.1 33.6L174.1 33.6Q174.6 33.6 174.9 33.3Q175.3 33.1 175.4 32.6Q175.6 32.1 175.6 31.5L175.6 31.5Q175.6 30.8 175.4 30.3Q175.3 29.9 174.9 29.6Q174.6 29.3 174.1 29.3L174.1 29.3Q173.6 29.3 173.3 29.6Q172.9 29.9 172.7 30.4Q172.6 30.8 172.6 31.5L172.6 31.5Q172.6 32.1 172.8 32.6Q172.9 33.0 173.3 33.3Q173.6 33.6 174.1 33.6Z "/></g></svg>