<!-- Generated by readme-aura https://github.com/collectioneur/readme-aura -->
<svg width="278" height="60" viewBox="0 0 278 60" xmlns="http://www.w3.org/2000/svg"><defs><clipPath id="satori_bc-id"><path x="0" y="0" width="278" height="60" d="M12,0 h254 a12,12 0 0 1 12,12 v36 a12,12 0 0 1 -12,12 h-254 a12,12 0 0 1 -12,-12 v-36 a12,12 0 0 1 12,-12"/></clipPath></defs><mask id="satori_ms-id-0" maskUnits="userSpaceOnUse"><rect x="0" y="0" width="278" height="60" fill="#fff"/><path x="0" y="0" width="278" height="60" fill="#000"  stroke-width="0" d="M12,0 h254 a12,12 0 0 1 12,12 v36 a12,12 0 0 1 -12,12 h-254 a12,12 0 0 1 -12,-12 v-36 a12,12 0 0 1 12,-12"/></mask><defs><filter id="satori_s-id-0" x="-20.23381294964029%" y="-93.75%" width="140.46762589928056%" height="287.5%"><feGaussianBlur stdDeviation="7.5" result="b"/><feFlood flood-color="rgba(0, 0, 0, 0.2)" in="SourceGraphic" result="f"/><feComposite in="f" in2="b" operator="in"/></filter></defs><g mask="url(#satori_ms-id-0)" filter="url(#satori_s-id-0)" opacity="1"><path x="0" y="4" width="278" height="60" fill="#fff" stroke="#fff" stroke-width="0" d="M12,4 h254 a12,12 0 0 1 12,12 v36 a12,12 0 0 1 -12,12 h-254 a12,12 0 0 1 -12,-12 v-36 a12,12 0 0 1 12,-12"/></g><clipPath id="satori_cp-id"><path x="0" y="0" width="278" height="60" d="M12,0 h254 a12,12 0 0 1 12,12 v36 a12,12 0 0 1 -12,12 h-254 a12,12 0 0 1 -12,-12 v-36 a12,12 0 0 1 12,-12"/></clipPath><mask id="satori_om-id"><rect x="1" y="1" width="276" height="58" fill="#fff"/><path width="278" height="60" fill="none" stroke="#000" stroke-width="2" d="M3.5150000000000006,3.5150000000000006 A12,12 0 0 1 12,0 h254 a12,12 0 0 1 12,12 v36 a12,12 0 0 1 -12,12 h-254 a12,12 0 0 1 -12,-12 v-36 A12,12 0 0 1 3.5150000000000006,3.5150000000000006"/></mask><path x="0" y="0" width="278" height="60" fill="#0a0b10" d="M12,0 h254 a12,12 0 0 1 12,12 v36 a12,12 0 0 1 -12,12 h-254 a12,12 0 0 1 -12,-12 v-36 a12,12 0 0 1 12,-12"/><path width="278" height="60" clip-path="url(#satori_bc-id)" fill="none" stroke="rgba(219, 48, 105, 0.3)" stroke-width="2" d="M3.5150000000000006,3.5150000000000006 A12,12 0 0 1 12,0 h254 a12,12 0 0 1 12,12 v36 a12,12 0 0 1 -12,12 h-254 a12,12 0 0 1 -12,-12 v-36 A12,12 0 0 1 3.5150000000000006,3.5150000000000006"/><mask id="satori_om-id-0"><rect x="1" y="1" width="276" height="58" fill="#fff" mask="url(#satori_om-id)"/></mask><rect x="1" y="1" width="276" height="58" fill="rgba(219, 48, 105, 0.12)" clip-path="url(#satori_cp-id)" mask="url(#satori_om-id)"/><mask id="satori_om-id-1"><rect x="92" y="22" width="95" height="16" fill="#fff" mask="url(#satori_om-id)"/></mask><clipPath id="satori_cp-id-1-0" clip-path="url(#satori_cp-id)"><rect x="92" y="22" width="16" height="16"/></clipPath><mask id="satori_om-id-1-0"><rect x="92" y="22" width="16" height="16" fill="#fff" mask="url(#satori_om-id)"/></mask><svg x="92" y="22" width="16" height="16" preserveAspectRatio="none" clip-path="url(#satori_cp-id-1-0)" mask="url(#satori_om-id-1-0)"><rect stroke="#fda4af" x="2" y="2" width="20" height="20" rx="5" ry="5"></rect><path stroke="#fda4af" d="M16 11.37A4 4 0 1 1 12.63 8 4 4 0 0 1 16 11.37zM17.5 6.5h.01"></path></svg><mask id="satori_om-id-1-0-0"><rect x="92" y="22" width="0" height="16" fill="#fff" mask="url(#satori_om-id)"/></mask><mask id="satori_om-id-1-0-1"><rect x="92" y="22" width="0" height="16" fill="#fff" mask="url(#satori_om-id)"/></mask><mask id="satori_om-id-1-1"><rect x="118" y="22" width="69" height="16" fill="#fff" mask="url(#satori_om-id)"/></mask><g mask="url(#satori_om-id)" clip-path="url(#satori_cp-id)"><path fill="#fda4af" d="M118.9 25.5L120.8 25.5L120.8 35L118.9 35L118.9 25.5ZM124.9 30.9L124.9 30.9L124.9 35L123.0 35L123.0 27.9L124.8 27.9L124.8 29.4Q125.1 28.7 125.5 28.3L125.5 28.3Q126.1 27.8 127.0 27.8L127.0 27.8Q127.7 27.8 128.3 28.1Q128.8 28.5 129.1 29.1Q129.4 29.7 129.4 30.5L129.4 30.5L129.4 35L127.5 35L127.5 30.8Q127.5 30.2 127.2 29.8Q126.8 29.4 126.2 29.4L126.2 29.4Q125.8 29.4 125.5 29.6Q125.2 29.8 125.0 30.1Q124.9 30.4 124.9 30.9ZM134.4 35.1L134.4 35.1Q133.5 35.1 132.9 34.9Q132.2 34.7 131.8 34.2Q131.4 33.7 131.2 33.1L131.2 33.1L133.0 32.8Q133.1 33.2 133.5 33.5Q133.8 33.7 134.4 33.7L134.4 33.7Q135.0 33.7 135.3 33.5Q135.6 33.3 135.6 33.0L135.6 33.0Q135.6 32.7 135.4 32.6Q135.2 32.4 134.7 32.3L134.7 32.3L133.5 32.0Q132.4 31.8 131.9 31.3Q131.4 30.8 131.4 30.0L131.4 30.0Q131.4 29.3 131.8 28.8Q132.2 28.3 132.8 28.1Q133.5 27.8 134.4 27.8L134.4 27.8Q135.2 27.8 135.9 28.0Q136.5 28.3 136.9 28.7Q137.2 29.1 137.4 29.7L137.4 29.7L135.7 30.0Q135.6 29.6 135.3 29.4Q135.0 29.2 134.4 29.2L134.4 29.2Q134.0 29.2 133.6 29.4Q133.3 29.6 133.3 29.9L133.3 29.9Q133.3 30.2 133.5 30.4Q133.7 30.5 134.2 30.6L134.2 30.6L135.5 30.9Q136.5 31.1 137.0 31.6Q137.5 32.0 137.5 32.8L137.5 32.8Q137.5 33.5 137.1 34.0Q136.7 34.6 136.0 34.8Q135.3 35.1 134.4 35.1ZM141.5 27.9L142.9 27.9L142.9 29.4L141.5 29.4L141.5 32.9Q141.5 33.3 141.7 33.4Q141.8 33.6 142.2 33.6L142.2 33.6Q142.3 33.6 142.5 33.6Q142.7 33.5 142.8 33.5L142.8 33.5L143.1 34.9Q142.7 35.0 142.4 35.1Q142.1 35.1 141.8 35.1L141.8 35.1Q140.8 35.1 140.2 34.6Q139.6 34.1 139.6 33.1L139.6 33.1L139.6 29.4L138.7 29.4L138.7 27.9L139.6 27.9L139.6 26.2L141.5 26.2L141.5 27.9ZM146.6 35.1L146.6 35.1Q145.9 35.1 145.4 34.9Q144.8 34.7 144.5 34.2Q144.2 33.7 144.2 33.0L144.2 33.0Q144.2 32.4 144.4 32.0Q144.7 31.6 145.0 31.4Q145.4 31.1 145.9 31.0Q146.4 30.9 146.9 30.8L146.9 30.8Q147.5 30.8 147.9 30.7Q148.3 30.7 148.4 30.5Q148.6 30.4 148.6 30.2L148.6 30.2L148.6 30.2Q148.6 29.9 148.5 29.7Q148.4 29.4 148.1 29.3Q147.9 29.2 147.5 29.2L147.5 29.2Q147.1 29.2 146.9 29.3Q146.6 29.4 146.4 29.6Q146.2 29.8 146.2 30.0L146.2 30.0L144.4 29.8Q144.6 29.1 145.0 28.7Q145.5 28.3 146.1 28.0Q146.7 27.8 147.5 27.8L147.5 27.8Q148.1 27.8 148.6 28.0Q149.2 28.1 149.6 28.4Q150.0 28.7 150.3 29.1Q150.5 29.6 150.5 30.2L150.5 30.2L150.5 35L148.7 35L148.7 34.0L148.7 34.0Q148.5 34.3 148.2 34.6Q147.9 34.8 147.5 35.0Q147.1 35.1 146.6 35.1ZM147.1 33.8L147.1 33.8Q147.6 33.8 147.9 33.6Q148.2 33.4 148.4 33.1Q148.6 32.8 148.6 32.5L148.6 32.5L148.6 31.7Q148.5 31.8 148.4 31.8Q148.2 31.9 148.0 31.9Q147.8 31.9 147.6 32.0Q147.4 32.0 147.2 32.0L147.2 32.0Q146.9 32.1 146.6 32.2Q146.3 32.3 146.2 32.5Q146.0 32.7 146.0 33.0L146.0 33.0Q146.0 33.2 146.2 33.4Q146.3 33.6 146.6 33.7Q146.8 33.8 147.1 33.8ZM155.8 37.8L155.8 37.8Q154.9 37.8 154.3 37.6Q153.6 37.4 153.2 37.0Q152.8 36.6 152.6 36.1L152.6 36.1L154.2 35.6Q154.3 35.8 154.5 36.0Q154.7 36.2 155.0 36.3Q155.3 36.4 155.8 36.4L155.8 36.4Q156.5 36.4 156.9 36.1Q157.3 35.8 157.3 35.1L157.3 35.1L157.3 33.7L157.2 33.7Q157.1 34.0 156.8 34.3Q156.6 34.6 156.2 34.7Q155.8 34.9 155.2 34.9L155.2 34.9Q154.4 34.9 153.8 34.5Q153.1 34.1 152.7 33.4Q152.3 32.6 152.3 31.4L152.3 31.4Q152.3 30.2 152.7 29.4Q153.1 28.6 153.8 28.2Q154.5 27.8 155.2 27.8L155.2 27.8Q155.8 27.8 156.2 28.0Q156.6 28.2 156.9 28.5Q157.2 28.8 157.3 29.1L157.3 29.1L157.4 29.1L157.4 27.9L159.2 27.9L159.2 34.9Q159.2 35.9 158.8 36.5Q158.4 37.2 157.6 37.5Q156.8 37.8 155.8 37.8ZM155.8 33.5L155.8 33.5Q156.3 33.5 156.7 33.2Q157.0 33.0 157.2 32.5Q157.4 32.1 157.4 31.4L157.4 31.4Q157.4 30.8 157.2 30.3Q157.0 29.9 156.7 29.6Q156.3 29.3 155.8 29.3L155.8 29.3Q155.3 29.3 155.0 29.6Q154.7 29.9 154.5 30.3Q154.3 30.8 154.3 31.4L154.3 31.4Q154.3 32.0 154.5 32.5Q154.7 33.0 155.0 33.2Q155.3 33.5 155.8 33.5ZM163.3 35L161.4 35L161.4 27.9L163.2 27.9L163.2 29.1L163.3 29.1Q163.5 28.5 163.9 28.1Q164.4 27.8 165.0 27.8L165.0 27.8Q165.1 27.8 165.3 27.8Q165.5 27.8 165.6 27.9L165.6 27.9L165.6 29.6Q165.5 29.5 165.2 29.5Q165.0 29.5 164.8 29.5L164.8 29.5Q164.3 29.5 164.0 29.7Q163.6 29.9 163.5 30.2Q163.3 30.5 163.3 31.0L163.3 31.0L163.3 35ZM169.1 35.1L169.1 35.1Q168.5 35.1 167.9 34.9Q167.4 34.7 167.1 34.2Q166.8 33.7 166.8 33.0L166.8 33.0Q166.8 32.4 167.0 32.0Q167.2 31.6 167.6 31.4Q168.0 31.1 168.4 31.0Q168.9 30.9 169.5 30.8L169.5 30.8Q170.1 30.8 170.4 30.7Q170.8 30.7 171.0 30.5Q171.2 30.4 171.2 30.2L171.2 30.2L171.2 30.2Q171.2 29.9 171.0 29.7Q170.9 29.4 170.7 29.3Q170.4 29.2 170.1 29.2L170.1 29.2Q169.7 29.2 169.4 29.3Q169.1 29.4 169.0 29.6Q168.8 29.8 168.7 30.0L168.7 30.0L167.0 29.8Q167.2 29.1 167.6 28.7Q168.0 28.3 168.6 28.0Q169.3 27.8 170.1 27.8L170.1 27.8Q170.6 27.8 171.2 28.0Q171.7 28.1 172.1 28.4Q172.6 28.7 172.8 29.1Q173.1 29.6 173.1 30.2L173.1 30.2L173.1 35L171.3 35L171.3 34.0L171.2 34.0Q171.0 34.3 170.8 34.6Q170.5 34.8 170.1 35.0Q169.7 35.1 169.1 35.1ZM169.7 33.8L169.7 33.8Q170.1 33.8 170.5 33.6Q170.8 33.4 171.0 33.1Q171.2 32.8 171.2 32.5L171.2 32.5L171.2 31.7Q171.1 31.8 170.9 31.8Q170.8 31.9 170.5 31.9Q170.3 31.9 170.1 32.0Q169.9 32.0 169.8 32.0L169.8 32.0Q169.4 32.1 169.2 32.2Q168.9 32.3 168.7 32.5Q168.6 32.7 168.6 33.0L168.6 33.0Q168.6 33.2 168.7 33.4Q168.9 33.6 169.1 33.7Q169.4 33.8 169.7 33.8ZM177.1 35L175.2 35L175.2 27.9L177.0 27.9L177.0 29.3Q177.2 28.9 177.4 28.6L177.4 28.6Q177.7 28.2 178.2 28.0Q178.6 27.8 179.1 27.8L179.1 27.8Q179.8 27.8 180.3 28.3L180.3 28.3Q180.7 28.7 180.9 29.4L180.9 29.4Q181.0 29.0 181.3 28.7L181.3 28.7Q181.6 28.2 182.1 28.0Q182.6 27.8 183.2 27.8L183.2 27.8Q183.8 27.8 184.3 28.1Q184.8 28.4 185.1 28.9Q185.4 29.4 185.4 30.2L185.4 30.2L185.4 35L183.5 35L183.5 30.6Q183.5 30.0 183.2 29.7Q182.9 29.4 182.4 29.4L182.4 29.4Q182.0 29.4 181.8 29.5Q181.5 29.7 181.4 30.0Q181.2 30.3 181.2 30.6L181.2 30.6L181.2 35L179.4 35L179.4 30.5Q179.4 30.0 179.1 29.7Q178.8 29.4 178.3 29.4L178.3 29.4Q178.0 29.4 177.7 29.5Q177.4 29.7 177.3 30.0Q177.1 30.3 177.1 30.7L177.1 30.7L177.1 35Z "/></g></svg>